<?xml version="1.0" encoding="UTF-8" standalone="no"?>
<!-- Created with Inkscape (http://www.inkscape.org/) -->
<svg id="svg2" xmlns:rdf="http://www.w3.org/1999/02/22-rdf-syntax-ns#" xmlns="http://www.w3.org/2000/svg" height="32" width="33" version="1.1" xmlns:cc="http://creativecommons.org/ns#" xmlns:dc="http://purl.org/dc/elements/1.1/">
 <metadata id="metadata8">
  <rdf:RDF>
   <cc:Work rdf:about="">
    <dc:format>image/svg+xml</dc:format>
    <dc:type rdf:resource="http://purl.org/dc/dcmitype/StillImage"/>
    <dc:title/>
   </cc:Work>
  </rdf:RDF>
 </metadata>
 <g id="g3032">
  <path id="path3001" fill="#fefefe" d="M13,31.108c0-0.49-1.132-1.175-2.515-1.522-3.0649-0.77-6.485-3.569-6.485-5.308,0-0.703-0.45-1.278-1-1.278s-1-0.675-1-1.5-0.45-1.5-1-1.5-1-1.8-1-4,0.45-4,1-4,1-0.675,1-1.5,0.45-1.5,1-1.5,1-0.575,1-1.2778c0-1.7392,3.4201-4.5386,6.485-5.3077,1.383-0.3472,2.515-1.0325,2.515-1.5229,0-0.49037,1.8-0.89159,4-0.89159s4,0.40122,4,0.89159c0,0.49038,1.1364,1.1768,2.5254,1.5254,3.228,0.81018,6.2474,3.8295,7.0575,7.0575,0.35,1.3895,1.036,2.5255,1.526,2.5255,0.491,0,0.892,1.8,0.892,4s-0.40122,4-0.89159,4c-0.49038,0-1.1768,1.1364-1.5254,2.5254-0.81018,3.228-3.8295,6.2474-7.0575,7.0575-1.39,0.35-2.526,1.036-2.526,1.526,0,0.491-1.8,0.892-4,0.892s-4-0.401-4-0.892z"/>
  <path id="path2999" fill="#ee07f7" d="M13,31.108c0-0.49-1.132-1.175-2.515-1.522-3.0649-0.77-6.485-3.569-6.485-5.308,0-0.703-0.45-1.278-1-1.278s-1-0.675-1-1.5-0.45-1.5-1-1.5-1-1.8-1-4,0.45-4,1-4,1-0.675,1-1.5,0.45-1.5,1-1.5,1-0.575,1-1.2778c0-1.7392,3.4201-4.5386,6.485-5.3077,1.383-0.3472,2.515-1.0325,2.515-1.5229,0-0.49037,1.8-0.89159,4-0.89159s4,0.40122,4,0.89159c0,0.49038,1.1364,1.1768,2.5254,1.5254,3.228,0.81018,6.2474,3.8295,7.0575,7.0575,0.35,1.3895,1.036,2.5255,1.526,2.5255,0.491,0,0.892,1.8,0.892,4s-0.40122,4-0.89159,4c-0.49038,0-1.1768,1.1364-1.5254,2.5254-0.81018,3.228-3.8295,6.2474-7.0575,7.0575-1.39,0.35-2.526,1.036-2.526,1.526,0,0.491-1.8,0.892-4,0.892s-4-0.401-4-0.892zm11-24.196c0-0.9927-4.828-2.4176-5.594-1.6512-0.276,0.2755,0.208,1.2105,1.075,2.0776,1.555,1.5545,4.519,1.2748,4.519-0.4264z"/>
  <path id="path2997" fill="#d806e0" d="M13,31.108c0-0.49-1.132-1.175-2.515-1.522-3.0649-0.77-6.485-3.569-6.485-5.308,0-0.703-0.45-1.278-1-1.278s-1-0.675-1-1.5-0.45-1.5-1-1.5-1-1.8-1-4,0.45-4,1-4,1-0.675,1-1.5,0.45-1.5,1-1.5,1-0.575,1-1.2778c0-1.7392,3.4201-4.5386,6.485-5.3077,1.383-0.3472,2.515-1.0325,2.515-1.5229,0-0.49037,1.8-0.89159,4-0.89159s4,0.41425,4,0.92054c0,0.50626,1.35,1.2171,3,1.5795,3.2434,0.71236,3.8924,1.9436,1.5072,2.8589-0.82106,0.31507-2.2836-0.26214-3.25-1.2827-0.96644-1.0206-2.8727-1.7927-4.2362-1.7159-1.9984,0.1126-2.5236,0.71976-2.7087,3.1319-0.17111,2.2293,0.01477,2.6117,0.72903,1.5,0.81779-1.2729,1.0921-1.2851,1.8662-0.082881,0.49911,0.77512,0.68166,2.1251,0.40567,3-0.43775,1.3876-0.36211,1.3992,0.59252,0.090684,0.97274-1.3333,1.2037-1.3333,2.079,0,0.54158,0.825,0.99158,0.98564,1,0.35699,0.0084-0.62865,0.6268-1.3777,1.3742-1.6645,0.99634-0.38233,1.2676,0.26244,1.0168,2.4168-0.28528,2.4501-0.11409,2.7266,1.0305,1.6645,0.99756-0.92575,1.0613-1.4787,0.23324-2.0238-0.82374-0.54225-0.76174-0.99346,0.22382-1.6289,1.1509-0.74207,1.1509-0.96381,0-1.4239-1.139-0.4553-1.131-0.7067,0.046-1.5285,2.114-1.4752,3.892-0.3506,4.609,2.9148,0.353,1.6045,1.055,2.9165,1.561,2.9165,0.507,0,0.921,1.8,0.921,4s-0.40122,4-0.89159,4c-0.49038,0-1.1768,1.1364-1.5254,2.5254-0.81018,3.228-3.8295,6.2474-7.0575,7.0575-1.39,0.35-2.526,1.036-2.526,1.526,0,0.491-1.8,0.892-4,0.892s-4-0.401-4-0.892zm3.75-1.7977c-0.962-0.251-1.75-0.838-1.75-1.304s-1.35-1.144-3-1.506-3-1.298-3-2.079c0-0.782-0.45-1.421-1-1.421s-1-0.675-1-1.5-0.4241-1.5-0.9425-1.5-1.132-1.688-1.3637-3.75c-0.2358-2.1-0.3169-1.568-0.1843,1.208,0.1303,2.726,0.7439,5.126,1.3637,5.333,0.6197,0.207,1.1268,1.005,1.1268,1.773,0,0.76869,1.0924,1.6718,2.4276,2.0069,1.3352,0.33512,2.6711,1.2437,2.9686,2.0191,0.30341,0.79067,1.7624,1.3588,3.3224,1.2938,1.6912-0.07053,2.0955-0.29526,1.0314-0.57332zm-0.75-25.31c0-0.55,0.45-1,1-1s1,0.45,1,1-0.45,1-1,1-1-0.45-1-1z"/>
  <path id="path2995" fill="#aa04b0" d="M13,31.108c0-0.49-1.132-1.175-2.515-1.522-3.0649-0.77-6.485-3.569-6.485-5.308,0-0.703-0.45-1.278-1-1.278s-1-0.675-1-1.5-0.45-1.5-1-1.5-1-1.8-1-4,0.45-4,1-4,1-0.675,1-1.5,0.45-1.5,1-1.5,1-0.575,1-1.2778c0-1.7392,3.4201-4.5386,6.485-5.3077,1.383-0.3472,2.515-1.0325,2.515-1.5229,0-0.49037,1.8-0.89159,4-0.89159s4,0.40122,4,0.89159c0,0.49038,1.1364,1.1768,2.5254,1.5254,3.228,0.81018,6.2474,3.8295,7.0575,7.0575,0.35,1.3895,1.036,2.5255,1.526,2.5255,0.491,0,0.892,1.8,0.892,4s-0.41424,4-0.92054,4-1.2171,1.35-1.5795,3c-0.62861,2.862-1.8515,3.8616-2.7528,2.25-0.23069-0.4125-0.30982-0.25919-0.17585,0.34068,0.60482,2.7081-1.5723,3.9063-6.7069,3.6909-2.864-0.12-5.472-0.647-5.795-1.171-0.324-0.524-1.822-1.262-3.329-1.64s-2.74-1.362-2.74-2.186c0-0.956-0.5731-1.279-1.5818-0.892-0.87,0.334-1.77,0.607-2,0.607s-0.4182,0.4-0.4182,0.889c0,0.48879,1.5316,1.176,3.4034,1.5272,1.8719,0.35117,3.6578,1.3013,3.9686,2.1113,0.368,0.96,1.969,1.473,4.597,1.473,2.217,0,4.031,0.45,4.031,1s-1.8,1-4,1-4-0.40122-4-0.89159zm11-3.108c0-0.55-0.45-1-1-1s-1,0.45-1,1,0.45,1,1,1,1-0.45,1-1zm-17-6.583c0-1.766-2.1528-1.459-2.7708,0.395-0.2177,0.654,0.3166,1.188,1.1875,1.188,0.8708,0,1.5833-0.712,1.5833-1.583zm-2-5.417c0-2.889-0.4167-4-1.5-4-0.825,0-1.5,0.45-1.5,1s0.45,1,1,1,1,0.9,1,2-0.45,2-1,2-1,0.45-1,1,0.675,1,1.5,1c1.0833,0,1.5-1.111,1.5-4zm21.18,1c1.6617,0,1.9238-0.45085,1.4228-2.4471-0.43508-1.7335-0.10218-2.7488,1.1416-3.4817,1.1578-0.68226,1.3904-1.2963,0.68283-1.8029-0.591-0.4224-1.364-1.5556-1.72-2.5181-0.355-0.9625-1.297-1.75-2.093-1.75-0.797,0-1.617-0.5071-1.824-1.1268-0.207-0.6198-2.672-1.3475-5.478-1.6172-5.041-0.4843-5.111-0.4527-5.787,2.6269-0.37655,1.7144-1.2114,3.124-1.8552,3.1324-0.84419,0.011043-0.85962,0.22015-0.05533,0.75,0.61337,0.40408,1.4309,1.7461,1.8166,2.9824,0.38579,1.2362,1.7964,2.5225,3.1348,2.8584,1.337,0.336,2.432,1.012,2.432,1.502,0,0.491,0.675,0.892,1.5,0.892s1.5,0.707,1.5,1.571c0,1.429,0.143,1.429,1.571,0,0.865-0.864,2.488-1.571,3.609-1.571zm-18.537-10.5c1.628-1.6281,1.3857-1.832-1.0611-0.893-0.87,0.3338-1.5818,1.0088-1.5818,1.5,0,1.3096,0.9428,1.093,2.6429-0.607zm4.3571-2.5c0-0.55-0.45-1-1-1s-1,0.45-1,1,0.45,1,1,1,1-0.45,1-1z"/>
  <path id="path2993" fill="#7d0381" d="M13,31.108c0-0.49-1.132-1.175-2.515-1.522-3.0649-0.77-6.485-3.569-6.485-5.308,0-0.703-0.45-1.278-1-1.278s-1-0.675-1-1.5-0.45-1.5-1-1.5-1-1.8-1-4,0.45-4,1-4,1-0.675,1-1.5,0.45-1.5,1-1.5,1-0.575,1-1.2778c0-1.7392,3.4201-4.5386,6.485-5.3077,1.383-0.3472,2.515-1.0325,2.515-1.5229,0-0.49037,1.8-0.89159,4-0.89159s4,0.40122,4,0.89159c0,0.49038,1.1364,1.1768,2.5254,1.5254,3.228,0.81018,6.2474,3.8295,7.0575,7.0575,0.35,1.3895,1.036,2.5255,1.526,2.5255,0.491,0,0.892,1.8,0.892,4s-0.40122,4-0.89159,4c-0.49038,0-1.1768,1.1364-1.5254,2.5254-1.1887,4.7362-4.532,6.9937-10.002,6.7538-2.7081-0.11877-5.1887-0.6445-5.5124-1.1683-0.324-0.524-1.822-1.262-3.329-1.64s-2.74-1.314-2.74-2.079c0-0.766-0.45-1.392-1-1.392s-1-0.675-1-1.5-0.45-1.5-1-1.5-1-2.475-1-5.5,0.4179-5.5,0.9286-5.5,1.6357-0.7071,2.5-1.5714c1.4285-1.4286,1.5714-1.3377,1.5714,1,0,1.4143,0.414,2.5714,0.921,2.5714,0.5063,0,1.2171,1.35,1.5795,3,0.63656,2.8982,1.98,3.9555,2.6667,2.0985,0.18333-0.49581,0.99359-0.18516,1.8006,0.69035,1.2993,1.4096,1.2765,1.5186-0.19907,0.95241-1.186-0.45509-1.506-0.22169-1.1103,0.80965,0.30583,0.79699,1.0704,1.5065,1.6991,1.5767,0.62866,0.07019,2.249,0.23824,3.6008,0.37343,1.3518,0.1352,2.6268,0.75276,2.8333,1.3724,0.206,0.621,1.012,1.128,1.791,1.128,1.7492,0,1.8813,2.6459,0.16667,3.3377-0.97906,0.39506-0.97226,0.5215,0.03139,0.58333,0.70476,0.04342,1.5719-0.70855,1.9271-1.6711,0.35512-0.9625,1.1155-2.063,1.6897-2.4456,0.57419-0.3826,0.69505-1.0446,0.26857-1.471-0.42648-0.42648-1.1941-0.11344-1.7057,0.69563-0.51167,0.80907-0.9372,0.95732-0.94563,0.32945-0.008-0.627-1.14-1.424-2.515-1.769-2.405-0.603-3.556-2.589-1.5-2.589,0.55,0,1,0.45,1,1s0.675,1,1.5,1c1.5568,0,2.0624-1.5188,0.75-2.2528-0.4125-0.23069-0.1875-0.28231,0.5-0.11472,0.6875,0.1676,1.25-0.35616,1.25-1.1639,0-1.7904,1.6642-1.9505,2.2719-0.21862,0.24123,0.6875,0.44748-0.03554,0.45833-1.6068,0.01309-1.8949-0.25657-2.4097-0.80089-1.529-0.45134,0.73029-1.1826,0.94173-1.625,0.46986-0.442-0.471-0.242-1.058,0.446-1.303,1.483-0.53,1.693-3.28,0.25-3.28-0.55,0-1-0.6891-1-1.5314,0-0.8422-0.788-1.8219-1.75-2.177-0.962-0.3552-2.071-1.1285-2.464-1.7187-0.947-1.4241-12.658-1.3876-13.572,0.0423-0.3929,0.6134-1.6952,1.4213-2.8945,1.7953-1.3415,0.4185-2.4302,1.817-2.8295,3.6348-0.3569,1.6247-1.0632,2.9547-1.5695,2.9547s-0.9205,1.8-0.9205,4,0.41425,4,0.92054,4c0.5063,0,1.2126,1.3296,1.5695,2.9547,0.39926,1.8178,1.4879,3.2163,2.8295,3.6348,1.1993,0.37406,2.47,1.1309,2.8239,1.6819,0.35388,0.55097,2.9414,1.2226,5.75,1.4924,6.04,0.58,6.859,2.236,1.107,2.236-2.2,0-4-0.401-4-0.892zm11-3.108c0-0.55-0.45-1-1-1s-1,0.45-1,1,0.45,1,1,1,1-0.45,1-1zm6-9.107c0-1.4376-1.7351-1.0257-2.3421,0.55606-0.37166,0.96852-0.07551,1.2647,0.89301,0.89301,0.797-0.306,1.449-0.958,1.449-1.449zm-11,0.107c0-0.55,0.45-1,1-1s1,0.45,1,1-0.45,1-1,1-1-0.45-1-1z"/>
  <path id="path2991" fill="#48014b" d="M13,31.108c0-0.49-1.132-1.175-2.515-1.522-3.0649-0.77-6.485-3.569-6.485-5.308,0-0.703-0.45-1.278-1-1.278s-1-0.675-1-1.5-0.45-1.5-1-1.5-1-1.8-1-4,0.45-4,1-4,1-0.675,1-1.5,0.45-1.5,1-1.5,1-0.575,1-1.2778c0-1.7392,3.4201-4.5386,6.485-5.3077,1.383-0.3472,2.515-1.0325,2.515-1.5229,0-0.49037,1.8-0.89159,4-0.89159s4,0.40122,4,0.89159c0,0.49038,1.1364,1.1768,2.5254,1.5254,3.228,0.81018,6.2474,3.8295,7.0575,7.0575,0.35,1.3895,1.036,2.5255,1.526,2.5255,0.491,0,0.892,1.8,0.892,4s-0.40122,4-0.89159,4c-0.49038,0-1.1768,1.1364-1.5254,2.5254-0.81018,3.228-3.8295,6.2474-7.0575,7.0575-1.39,0.35-2.526,1.036-2.526,1.526,0,0.491-1.8,0.892-4,0.892s-4-0.401-4-0.892zm10.791-2.981c0.207-0.62,1.027-1.127,1.824-1.127,0.79643,0,1.7386-0.7875,2.0937-1.75,0.35512-0.9625,1.1285-2.0711,1.7186-2.4635,1.548-1.029,1.391-13.013-0.178-13.536-0.688-0.2292-1.25-1.0683-1.25-1.8647s-0.788-1.7386-1.75-2.0937c-0.962-0.3552-2.071-1.1285-2.464-1.7187-0.947-1.4241-12.658-1.3876-13.572,0.0423-0.3929,0.6134-1.6952,1.4213-2.8945,1.7953-1.3415,0.4185-2.4302,1.817-2.8295,3.6348-0.3569,1.6247-1.0632,2.9547-1.5695,2.9547s-0.9205,1.8-0.9205,4,0.41425,4,0.92054,4c0.5063,0,1.2171,1.3504,1.5797,3.0009,0.45062,2.0517,1.4247,3.1931,3.0795,3.6084,1.3311,0.334,2.4203,0.976,2.4203,1.426,0,2.1126,13.088,2.1997,13.791,0.09175zm-7.041-1.797c-0.962-0.262-1.75-0.894-1.75-1.403,0-0.51-1.125-0.927-2.5-0.927-2.336,0-3.5455-2.249-1.75-3.253,0.412-0.23,0.188-0.282-0.5-0.114-0.6875,0.167-1.25-0.357-1.25-1.164,0-0.808-0.45-1.469-1-1.469s-1-1.575-1-3.5c0-3.764,1.8505-4.7877,2.7103-1.5,0.28766,1.1,0.87174,2,1.298,2,0.42623,0,1.0556,1.1181,1.3986,2.4848,0.38474,1.5329,1.5755,2.7237,3.1084,3.1084,1.367,0.343,2.485,1.025,2.485,1.515,0,0.49038,0.7875,0.89848,1.75,0.9069,2.0061,0.01755,4.9252,1.6428,4.219,2.349-0.84259,0.84259-5.4205,1.4547-7.219,0.96527z"/>
  <path id="path2989" fill="#000" d="M13,31.108c0-0.49-1.132-1.175-2.515-1.522-3.0649-0.77-6.485-3.569-6.485-5.308,0-0.703-0.45-1.278-1-1.278s-1-0.675-1-1.5-0.45-1.5-1-1.5-1-1.8-1-4,0.45-4,1-4,1-0.675,1-1.5,0.45-1.5,1-1.5,1-0.575,1-1.2778c0-1.7392,3.4201-4.5386,6.485-5.3077,1.383-0.3472,2.515-1.0325,2.515-1.5229,0-0.49037,1.8-0.89159,4-0.89159s4,0.40122,4,0.89159c0,0.49038,1.1364,1.1768,2.5254,1.5254,3.228,0.81018,6.2474,3.8295,7.0575,7.0575,0.35,1.3895,1.036,2.5255,1.526,2.5255,0.491,0,0.892,1.8,0.892,4s-0.40122,4-0.89159,4c-0.49038,0-1.1768,1.1364-1.5254,2.5254-0.81018,3.228-3.8295,6.2474-7.0575,7.0575-1.39,0.35-2.526,1.036-2.526,1.526,0,0.491-1.8,0.892-4,0.892s-4-0.401-4-0.892zm10.791-2.981c0.207-0.62,1.027-1.127,1.824-1.127,0.79643,0,1.7386-0.7875,2.0937-1.75,0.35512-0.9625,1.1285-2.0711,1.7186-2.4635,1.548-1.029,1.391-13.013-0.178-13.536-0.688-0.2292-1.25-1.0683-1.25-1.8647s-0.788-1.7386-1.75-2.0937c-0.962-0.3552-2.071-1.1285-2.464-1.7187-0.947-1.4241-12.658-1.3876-13.572,0.0423-0.3929,0.6134-1.6952,1.4213-2.8945,1.7953-1.3415,0.4185-2.4302,1.817-2.8295,3.6348-0.3569,1.6247-1.0632,2.9547-1.5695,2.9547s-0.9205,1.8-0.9205,4,0.41425,4,0.92054,4c0.5063,0,1.2171,1.3504,1.5797,3.0009,0.45062,2.0517,1.4247,3.1931,3.0795,3.6084,1.3311,0.334,2.4203,0.976,2.4203,1.426,0,2.1126,13.088,2.1997,13.791,0.09175z"/>
 </g>
</svg>
