<?xml version="1.0" encoding="UTF-8" standalone="no"?>
<!-- Created with Inkscape (http://www.inkscape.org/) -->
<svg id="svg2" xmlns:rdf="http://www.w3.org/1999/02/22-rdf-syntax-ns#" xmlns="http://www.w3.org/2000/svg" height="32.003" width="32.001" version="1.1" xmlns:cc="http://creativecommons.org/ns#" xmlns:dc="http://purl.org/dc/elements/1.1/">
 <metadata id="metadata8">
  <rdf:RDF>
   <cc:Work rdf:about="">
    <dc:format>image/svg+xml</dc:format>
    <dc:type rdf:resource="http://purl.org/dc/dcmitype/StillImage"/>
    <dc:title/>
   </cc:Work>
  </rdf:RDF>
 </metadata>
 <g id="g2998" transform="translate(-1e-5,-1e-5)">
  <path id="path3001" fill="#fefefe" d="M12,31.108c0-0.49-1.136-1.176-2.5254-1.525-3.228-0.81-6.2474-3.83-7.0576-7.058-0.3486-1.389-1.035-2.525-1.5254-2.525-0.49037,0-0.89159-1.8-0.89159-4s0.40122-4,0.89159-4c0.4904,0,1.1768-1.136,1.5254-2.5254,0.8102-3.228,3.8296-6.2474,7.0576-7.0576,1.3894-0.3486,2.5254-1.035,2.5254-1.5254,0-0.49037,1.8-0.89159,4-0.89159s4,0.40122,4,0.89159c0,0.49038,1.1364,1.1768,2.5254,1.5254,3.228,0.81018,6.2474,3.8295,7.0575,7.0575,0.35,1.3895,1.036,2.5255,1.526,2.5255,0.491,0,0.892,1.8,0.892,4s-0.40122,4-0.89159,4c-0.49038,0-1.1768,1.1364-1.5254,2.5254-0.81018,3.228-3.8295,6.2474-7.0575,7.0575-1.39,0.35-2.526,1.036-2.526,1.526,0,0.491-1.8,0.892-4,0.892s-4-0.401-4-0.892z"/>
  <path id="path2999" fill="#9c9c9c" d="M12,31.108c0-0.49-1.136-1.176-2.5254-1.525-3.228-0.81-6.2474-3.83-7.0576-7.058-0.3486-1.389-1.035-2.525-1.5254-2.525-0.49037,0-0.89159-1.8-0.89159-4s0.40122-4,0.89159-4c0.4904,0,1.1768-1.136,1.5254-2.5254,0.8102-3.228,3.8296-6.2474,7.0576-7.0576,1.3894-0.3486,2.5254-1.035,2.5254-1.5254,0-0.49037,1.8-0.89159,4-0.89159s4,0.40122,4,0.89159c0,0.49038,1.1364,1.1768,2.5254,1.5254,3.228,0.81018,6.2474,3.8295,7.0575,7.0575,0.35,1.3895,1.036,2.5255,1.526,2.5255,0.491,0,0.892,1.8,0.892,4s-0.40122,4-0.89159,4c-0.49038,0-1.1768,1.1364-1.5254,2.5254-0.81018,3.228-3.8295,6.2474-7.0575,7.0575-1.39,0.35-2.526,1.036-2.526,1.526,0,0.491-1.8,0.892-4,0.892s-4-0.401-4-0.892zm11-24.196c0-0.9927-4.828-2.4176-5.594-1.6512-0.276,0.2755,0.208,1.2105,1.075,2.0776,1.555,1.5545,4.519,1.2748,4.519-0.4264z"/>
  <path id="path2997" fill="#8e8e8e" d="M12,31.108c0-0.49-1.136-1.176-2.5254-1.525-3.228-0.81-6.2474-3.83-7.0576-7.058-0.3486-1.389-1.035-2.525-1.5254-2.525-0.49037,0-0.89159-1.8-0.89159-4s0.40122-4,0.89159-4c0.4904,0,1.1768-1.136,1.5254-2.5254,0.8102-3.228,3.8296-6.2474,7.0576-7.0576,1.3894-0.3486,2.5254-1.035,2.5254-1.5254,0-0.49037,1.8-0.89159,4-0.89159s4,0.41425,4,0.92054c0,0.50626,1.35,1.2171,3,1.5795,3.2434,0.71236,3.8924,1.9436,1.5072,2.8589-0.82106,0.31507-2.2836-0.26214-3.25-1.2827-0.96644-1.0206-2.8727-1.7927-4.2362-1.7159-1.9984,0.1126-2.5236,0.71976-2.7087,3.1319-0.17111,2.2293,0.01477,2.6117,0.72903,1.5,0.81779-1.2729,1.0921-1.2851,1.8662-0.082881,0.49911,0.77512,0.68166,2.1251,0.40567,3-0.43775,1.3876-0.36211,1.3992,0.59252,0.090684,0.97274-1.3333,1.2037-1.3333,2.079,0,0.54158,0.825,0.99158,0.98564,1,0.35699,0.0084-0.62865,0.6268-1.3777,1.3742-1.6645,0.99634-0.38233,1.2676,0.26244,1.0168,2.4168-0.28528,2.4501-0.11409,2.7266,1.0305,1.6645,0.99756-0.92575,1.0613-1.4787,0.23324-2.0238-0.82374-0.54225-0.76174-0.99347,0.22382-1.6289,1.1509-0.74207,1.1509-0.96381,0-1.4239-1.139-0.4553-1.131-0.7067,0.046-1.5285,2.114-1.4752,3.892-0.3506,4.609,2.9148,0.353,1.6045,1.055,2.9165,1.561,2.9165,0.507,0,0.921,1.8,0.921,4s-0.40122,4-0.89159,4c-0.49038,0-1.1768,1.1364-1.5254,2.5254-0.81018,3.228-3.8295,6.2474-7.0575,7.0575-1.39,0.35-2.526,1.036-2.526,1.526,0,0.491-1.8,0.892-4,0.892s-4-0.401-4-0.892zm3.75-1.7977c-0.962-0.251-1.75-0.838-1.75-1.304s-1.35-1.144-3-1.506-3-1.261-3-1.996c0-0.736-0.5071-1.506-1.1268-1.713-0.6198-0.207-1.352-2.719-1.6273-5.583-0.5878-6.118-2.2459-7.009-2.2459-1.208,0,2.2,0.41425,4,0.92054,4,0.5063,0,1.2171,1.3504,1.5797,3.0009,0.4434,2.0188,1.4276,3.1938,3.0071,3.5902,1.2914,0.32412,2.5914,1.2237,2.889,1.9991,0.30341,0.79067,1.7624,1.3588,3.3224,1.2938,1.6912-0.07053,2.0955-0.29526,1.0314-0.57332zm-0.75-25.31c0-0.55,0.45-1,1-1s1,0.45,1,1-0.45,1-1,1-1-0.45-1-1z"/>
  <path id="path2995" fill="#6f6f6f" d="M12,31.108c0-0.49-1.136-1.176-2.5254-1.525-3.228-0.81-6.2474-3.83-7.0576-7.058-0.3486-1.389-1.035-2.525-1.5254-2.525-0.49037,0-0.89159-1.8-0.89159-4s0.40122-4,0.89159-4c0.4904,0,1.1768-1.136,1.5254-2.5254,0.8102-3.228,3.8296-6.2474,7.0576-7.0576,1.3894-0.3486,2.5254-1.035,2.5254-1.5254,0-0.49037,1.8-0.89159,4-0.89159s4,0.40122,4,0.89159c0,0.49038,1.1364,1.1768,2.5254,1.5254,3.228,0.81018,6.2474,3.8295,7.0575,7.0575,0.35,1.3895,1.036,2.5255,1.526,2.5255,0.491,0,0.892,1.8,0.892,4s-0.41424,4-0.92054,4-1.2171,1.35-1.5795,3c-0.62861,2.862-1.8515,3.8616-2.7528,2.25-0.23069-0.4125-0.30982-0.25919-0.17585,0.34068,0.60482,2.7081-1.5723,3.9063-6.7069,3.6909-2.864-0.12-5.472-0.647-5.795-1.171-0.324-0.524-1.822-1.262-3.329-1.64s-2.74-1.352-2.74-2.163c0-1.638-2.1656-1.311-2.7405,0.413-0.20101,0.60302,0.97077,1.3899,2.604,1.7486,1.6332,0.35871,3.2179,1.2997,3.5216,2.0911,0.354,0.923,1.999,1.439,4.584,1.439,2.217,0,4.031,0.45,4.031,1s-1.8,1-4,1-4-0.40122-4-0.89159zm11-3.108c0-0.55-0.45-1-1-1s-1,0.45-1,1,0.45,1,1,1,1-0.45,1-1zm-17.37-7.25c-0.3317-1.238-0.6091-3.712-0.6166-5.5-0.0083-1.957-0.52-3.25-1.2864-3.25-1.9551,0-1.7082,7.9774,0.25,8.0789,1.0276,0.053,1.1163,0.243,0.2727,0.583-1.7948,0.725-1.5418,2.338,0.3666,2.338,1.1885,0,1.457-0.596,1.0137-2.25zm19.55-3.75c1.6617,0,1.9238-0.45085,1.4228-2.4471-0.43508-1.7335-0.10218-2.7488,1.1416-3.4817,1.1578-0.68226,1.3904-1.2963,0.68283-1.8029-0.591-0.4224-1.364-1.5556-1.72-2.5181-0.355-0.9625-1.297-1.75-2.093-1.75-0.797,0-1.617-0.5071-1.824-1.1268-0.207-0.6198-2.672-1.3475-5.478-1.6172-5.041-0.4843-5.111-0.4527-5.787,2.6269-0.37655,1.7144-1.2114,3.124-1.8552,3.1324-0.84419,0.011043-0.85961,0.22015-0.055326,0.75,0.61337,0.40408,1.4309,1.7461,1.8167,2.9824,0.38579,1.2362,1.7964,2.5225,3.1348,2.8584,1.338,0.336,2.433,1.012,2.433,1.502,0,0.491,0.675,0.892,1.5,0.892s1.5,0.707,1.5,1.571c0,1.429,0.143,1.429,1.571,0,0.865-0.864,2.488-1.571,3.609-1.571zm-17.714-11.85c-0.5635-0.5932-2.4657,0.9101-2.4657,1.9485,0,0.5393,0.6296,0.4002,1.3991-0.309,0.7696-0.7092,1.2495-1.447,1.0666-1.6395zm3.5343-1.1499c0-0.55-0.45-1-1-1s-1,0.45-1,1,0.45,1,1,1,1-0.45,1-1z"/>
  <path id="path2993" fill="#515151" d="M12,31.108c0-0.49-1.136-1.176-2.5254-1.525-3.228-0.81-6.2474-3.83-7.0576-7.058-0.3486-1.389-1.035-2.525-1.5254-2.525-0.49037,0-0.89159-1.8-0.89159-4s0.40122-4,0.89159-4c0.4904,0,1.1768-1.136,1.5254-2.5254,0.8102-3.228,3.8296-6.2474,7.0576-7.0576,1.3894-0.3486,2.5254-1.035,2.5254-1.5254,0-0.49037,1.8-0.89159,4-0.89159s4,0.40122,4,0.89159c0,0.49038,1.1364,1.1768,2.5254,1.5254,3.228,0.81018,6.2474,3.8295,7.0575,7.0575,0.35,1.3895,1.036,2.5255,1.526,2.5255,0.491,0,0.892,1.8,0.892,4s-0.40122,4-0.89159,4c-0.49038,0-1.1768,1.1364-1.5254,2.5254-1.1887,4.7362-4.532,6.9937-10.002,6.7538-2.7081-0.11877-5.1887-0.6445-5.5124-1.1683-0.324-0.524-1.822-1.262-3.329-1.64s-2.74-1.277-2.74-1.996c0-0.72-0.5275-1.484-1.1723-1.699-0.6596-0.22-1.37-3.125-1.6245-6.643-0.3924-5.425-0.171-6.5143,1.6723-8.2316l2.125-1.9794v2.5389c0,1.3965,0.4142,2.539,0.9205,2.539,0.5065,0,1.2175,1.35,1.5795,3,0.63656,2.8982,1.98,3.9555,2.6667,2.0985,0.18333-0.49581,0.99359-0.18516,1.8006,0.69035,1.2993,1.4096,1.2765,1.5186-0.19907,0.95241-1.186-0.45509-1.506-0.22169-1.1103,0.80965,0.30583,0.79699,1.0704,1.5065,1.6991,1.5767,0.62866,0.07019,2.249,0.23824,3.6008,0.37343,1.3518,0.1352,2.6268,0.75276,2.8333,1.3724,0.206,0.621,1.012,1.128,1.791,1.128,1.7492,0,1.8813,2.6459,0.16667,3.3377-0.97906,0.39506-0.97226,0.5215,0.03139,0.58333,0.70476,0.04342,1.5719-0.70855,1.9271-1.6711,0.35512-0.9625,1.1155-2.063,1.6897-2.4456,0.57419-0.3826,0.69505-1.0446,0.26857-1.471-0.42648-0.42648-1.1941-0.11344-1.7057,0.69563-0.51167,0.80907-0.9372,0.95732-0.94563,0.32945-0.008-0.627-1.14-1.424-2.515-1.769-2.405-0.603-3.556-2.589-1.5-2.589,0.55,0,1,0.45,1,1s0.675,1,1.5,1c1.5568,0,2.0624-1.5188,0.75-2.2528-0.4125-0.23069-0.1875-0.28231,0.5-0.11472,0.6875,0.1676,1.25-0.35616,1.25-1.1639,0-1.7904,1.6642-1.9505,2.2719-0.21862,0.24123,0.6875,0.44748-0.03554,0.45833-1.6068,0.01309-1.8949-0.25657-2.4097-0.80089-1.529-0.45134,0.73029-1.1826,0.94173-1.625,0.46986-0.442-0.471-0.242-1.058,0.446-1.303,1.483-0.53,1.693-3.28,0.25-3.28-0.55,0-1-0.6891-1-1.5314,0-0.8422-0.788-1.8219-1.75-2.177-0.962-0.3552-2.071-1.1285-2.464-1.7187-0.92931-1.3974-12.644-1.3974-13.573,0-0.3919,0.5902-1.5005,1.3635-2.463,1.7187-0.9625,0.3551-1.75,1.2973-1.75,2.0937s-0.5625,1.6355-1.25,1.8647c-1.5688,0.5229-1.7255,12.507-0.1771,13.536,0.5902,0.393,1.3635,1.502,1.7187,2.464,0.3551,0.962,1.2973,1.75,2.0937,1.75,0.79643,0,1.6171,0.50708,1.8237,1.1268,0.20659,0.61976,2.7191,1.352,5.5833,1.6272,6.118,0.588,7.009,2.246,1.208,2.246-2.2,0-4-0.401-4-0.892zm11-3.108c0-0.55-0.45-1-1-1s-1,0.45-1,1,0.45,1,1,1,1-0.45,1-1zm6-9.107c0-1.4376-1.7351-1.0257-2.3421,0.55606-0.37166,0.96852-0.07551,1.2647,0.89301,0.89301,0.797-0.306,1.449-0.958,1.449-1.449zm-11,0.107c0-0.55,0.45-1,1-1s1,0.45,1,1-0.45,1-1,1-1-0.45-1-1z"/>
  <path id="path2991" fill="#2f2f2f" d="M12,31.108c0-0.49-1.136-1.176-2.5254-1.525-3.228-0.81-6.2474-3.83-7.0576-7.058-0.3486-1.389-1.035-2.525-1.5254-2.525-0.49037,0-0.89159-1.8-0.89159-4s0.40122-4,0.89159-4c0.4904,0,1.1768-1.136,1.5254-2.5254,0.8102-3.228,3.8296-6.2474,7.0576-7.0576,1.3894-0.3486,2.5254-1.035,2.5254-1.5254,0-0.49037,1.8-0.89159,4-0.89159s4,0.40122,4,0.89159c0,0.49038,1.1364,1.1768,2.5254,1.5254,3.228,0.81018,6.2474,3.8295,7.0575,7.0575,0.35,1.3895,1.036,2.5255,1.526,2.5255,0.491,0,0.892,1.8,0.892,4s-0.40122,4-0.89159,4c-0.49038,0-1.1768,1.1364-1.5254,2.5254-0.81018,3.228-3.8295,6.2474-7.0575,7.0575-1.39,0.35-2.526,1.036-2.526,1.526,0,0.491-1.8,0.892-4,0.892s-4-0.401-4-0.892zm10.791-2.981c0.207-0.62,1.027-1.127,1.824-1.127,0.79643,0,1.7386-0.7875,2.0937-1.75,0.35512-0.9625,1.1285-2.0711,1.7186-2.4635,1.548-1.029,1.391-13.013-0.178-13.536-0.688-0.2292-1.25-1.0683-1.25-1.8647s-0.788-1.7386-1.75-2.0937c-0.962-0.3552-2.071-1.1285-2.464-1.7187-0.92931-1.3974-12.644-1.3974-13.573,0-0.3919,0.5902-1.5005,1.3635-2.463,1.7187-0.9625,0.3551-1.75,1.2973-1.75,2.0937s-0.5625,1.6355-1.25,1.8647c-1.5688,0.5229-1.7255,12.507-0.1771,13.536,0.5902,0.393,1.3635,1.502,1.7187,2.464,0.3551,0.962,1.3348,1.75,2.177,1.75,0.8423,0,1.5314,0.417,1.5314,0.927,0,0.50967,0.7875,1.1558,1.75,1.4358,2.9397,0.85518,11.642-0.03779,12.041-1.2356zm-7.041-1.797c-0.962-0.262-1.75-0.894-1.75-1.403,0-0.51-1.125-0.927-2.5-0.927-2.3357,0-3.5455-2.249-1.75-3.253,0.412-0.23,0.1875-0.282-0.5-0.114-0.6875,0.167-1.25-0.357-1.25-1.164,0-0.808-0.45-1.469-1-1.469s-1-1.575-1-3.5c0-3.764,1.8505-4.7877,2.7103-1.5,0.28766,1.1,0.87174,2,1.298,2,0.42623,0,1.0556,1.1181,1.3986,2.4848,0.38474,1.5329,1.5755,2.7237,3.1084,3.1084,1.367,0.343,2.485,1.025,2.485,1.515,0,0.49038,0.7875,0.89848,1.75,0.9069,2.0061,0.01755,4.9252,1.6428,4.219,2.349-0.84259,0.84259-5.4205,1.4547-7.219,0.96527z"/>
  <path id="path2989" fill="#000" d="M12,31.108c0-0.49-1.136-1.176-2.5254-1.525-3.228-0.81-6.2474-3.83-7.0576-7.058-0.3486-1.389-1.035-2.525-1.5254-2.525-0.49037,0-0.89159-1.8-0.89159-4s0.40122-4,0.89159-4c0.4904,0,1.1768-1.136,1.5254-2.5254,0.8102-3.228,3.8296-6.2474,7.0576-7.0576,1.3894-0.3486,2.5254-1.035,2.5254-1.5254,0-0.49037,1.8-0.89159,4-0.89159s4,0.40122,4,0.89159c0,0.49038,1.1364,1.1768,2.5254,1.5254,3.228,0.81018,6.2474,3.8295,7.0575,7.0575,0.35,1.3895,1.036,2.5255,1.526,2.5255,0.491,0,0.892,1.8,0.892,4s-0.40122,4-0.89159,4c-0.49038,0-1.1768,1.1364-1.5254,2.5254-0.81018,3.228-3.8295,6.2474-7.0575,7.0575-1.39,0.35-2.526,1.036-2.526,1.526,0,0.491-1.8,0.892-4,0.892s-4-0.401-4-0.892zm10.791-2.981c0.207-0.62,1.027-1.127,1.824-1.127,0.79643,0,1.7386-0.7875,2.0937-1.75,0.35512-0.9625,1.1285-2.0711,1.7186-2.4635,1.548-1.029,1.391-13.013-0.178-13.536-0.688-0.2292-1.25-1.0683-1.25-1.8647s-0.788-1.7386-1.75-2.0937c-0.962-0.3552-2.071-1.1285-2.464-1.7187-0.92931-1.3974-12.644-1.3974-13.573,0-0.3919,0.5902-1.5005,1.3635-2.463,1.7187-0.9625,0.3551-1.75,1.2973-1.75,2.0937s-0.5625,1.6355-1.25,1.8647c-1.5688,0.5229-1.7255,12.507-0.1771,13.536,0.5902,0.393,1.3635,1.502,1.7187,2.464,0.3551,0.962,1.3348,1.75,2.177,1.75,0.8423,0,1.5314,0.417,1.5314,0.927,0,0.50967,0.7875,1.1558,1.75,1.4358,2.9397,0.85518,11.642-0.03779,12.041-1.2356z"/>
 </g>
</svg>
