<?xml version="1.0" encoding="UTF-8" standalone="no"?>
<!-- Created with Inkscape (http://www.inkscape.org/) -->
<svg id="svg2" xmlns:rdf="http://www.w3.org/1999/02/22-rdf-syntax-ns#" xmlns="http://www.w3.org/2000/svg" height="17.391" width="139" version="1.1" xmlns:cc="http://creativecommons.org/ns#" xmlns:dc="http://purl.org/dc/elements/1.1/">
 <metadata id="metadata8">
  <rdf:RDF>
   <cc:Work rdf:about="">
    <dc:format>image/svg+xml</dc:format>
    <dc:type rdf:resource="http://purl.org/dc/dcmitype/StillImage"/>
    <dc:title/>
   </cc:Work>
  </rdf:RDF>
 </metadata>
 <g id="g3005" transform="translate(0,0.29204545)">
  <path id="path3021" fill="#ebf5fa" d="M0,8.5,0,0,69.5,0,139,0,139,8.5,139,17,69.5,17,0,17,0,8.5z"/>
  <path id="path3019" fill="#98ceec" d="M0,8.5,0,0,10.893,0c8.7602,0,11.006,0.2937,11.469,1.5,0.79066,2.0604,5.2914,1.8911,6.6467-0.25,0.79327-1.2532,1.2569-1.3951,1.633-0.5,0.633,1.5081,11.358,1.7442,11.358,0.25,0-1.2241,11.699-1.3508,12.167-0.13178,0.183,0.47748,16.522,1.12,36.309,1.4276,24.244,0.377,36.094,0.9092,36.334,1.6318,0.5,1.4962,3.19,1.3473,3.21-0.1776,0.0109-0.88773,0.27302-0.84294,0.90453,0.15454,0.71407,1.1279,1.4004,0.85291,3.4847-1.396l2.6-2.8006v2.646c0,1.4553,0.45,2.646,1,2.646,1.5568,0,1.194,8.9489-0.42857,10.571-1.21,1.211-11.84,1.429-69.499,1.429h-68.071v-8.5zm101.11,7c0-0.55-0.45-1-1-1s-1,0.45-1,1,0.45,1,1,1,1-0.45,1-1zm-37.271-1.6042c-0.332-0.3323-1.195-0.3678-1.917-0.0789-0.79773,0.31923-0.56078,0.55618,0.60417,0.60417,1.0542,0.043421,1.6448-0.19293,1.3125-0.52522zm32,0c-0.3323-0.33229-1.1948-0.36782-1.9167-0.078947-0.79773,0.31923-0.56078,0.55618,0.60417,0.60417,1.0542,0.043421,1.6448-0.19293,1.3125-0.52522z"/>
  <path id="path3017" fill="#78c1e9" d="M2,8.5,2,0,10.417,0c5.8426,0,8.5452,0.38229,8.8369,1.25,0.56724,1.6874,25.868,1.1438,26.987-0.57982,0.5656-0.87122,0.97986-0.82901,1.6215,0.16522,0.68532,1.0619,8.6019,1.4256,38.659,1.7759l37.798,0.4405,2.2929,2.4741c2.4,2.5899,4.39,3.2254,4.39,1.4027,0-1.5932,2.63-3.9286,4.43-3.9286,0.86,0,1.57,0.675,1.57,1.5s0.45,1.5,1,1.5,1,1.8,1,4-0.45,4-1,4-1,0.675-1,1.5c0,1.3185-8.1667,1.5-67.5,1.5h-67.5v-8.5zm34.583,13c0-0.55-0.45-1-1-1s-1,0.45-1,1,0.45,1,1,1,1-0.45,1-1zm85-2.9286c0-0.5889-0.45-1.071-1-1.071s-1,0.4132-1,0.91821c0,0.50502-0.31232,1.7425-0.69405,2.75-0.65008,1.7158-0.58673,1.7255,1,0.15322,0.93-0.923,1.69-2.16,1.69-2.75zm-17-3.2932c0-1.448-2.7818-0.78877-3.393,0.80403-1.099,2.864-0.6365,3.4239,1.393,1.6862,1.1-0.94185,2-2.0624,2-2.4902zm5,3.2222c0-0.55-0.45-1-1-1s-1,0.45-1,1,0.45,1,1,1,1-0.45,1-1zm-23.167-3.0739c0.452-1.2548,7.167-1.1855,7.167,0.0739,0,0.55,1.125,1,2.5,1,1.5556,0,2.5-0.56667,2.5-1.5,0-1.2222-1.6667-1.5-9-1.5-8.4876,0-9,0.12004-9,2.1084,0,1.7988,0.40378,2.0082,2.75,1.4261,1.5125-0.37529,2.9-1.0991,3.0833-1.6084zm-4.833,0.0739c0-0.55,0.45-1,1-1s1,0.45,1,1-0.45,1-1,1-1-0.45-1-1zm-61.658-0.4491c0.372-0.9685,0.076-1.2646-0.893-0.893-1.582,0.607-1.994,2.3421-0.556,2.3421,0.491,0,1.143-0.6521,1.449-1.4491zm54.658,0.5224c0-0.5096,0.788-1.1324,1.75-1.384,0.962-0.2515,0.302-0.5095-1.469-0.5733-2.476-0.0893-3.086,0.2298-2.643,1.384,0.63,1.6401,2.362,2.0606,2.362,0.5733zm42-0.0733c0-0.55-0.675-1-1.5-1s-1.5,0.45-1.5,1,0.675,1,1.5,1,1.5-0.45,1.5-1zm-48.731-1.6559c-0.67703-0.27392-2.027-0.2906-3-0.037054-0.973,0.2536-0.419,0.4777,1.231,0.4981,1.65,0.02038,2.4461-0.18706,1.769-0.46099z"/>
  <path id="path3015" fill="#69b9e5" d="M2,10.082c0-10.177-0.0844-10.082,9-10.082,5.998,0,7.918,0.34439,8.362,1.5,0.394,1.028,2.001,1.5,5.107,1.5,2.492,0,4.531,0.45,4.531,1s-0.675,1-1.5,1-1.5,0.675-1.5,1.5,0.45,1.5,1,1.5,1-0.45,1-1,1.688-1.0613,3.75-1.1362c2.321-0.0843,2.893-0.3013,1.5-0.5695-1.238-0.2384-2.25-1.0612-2.25-1.8285,0-1.158,3.7674-1.3586,22.164-1.1804,12.19,0.11806,21.415,0.36016,20.5,0.53799-1.002,0.1946-1.664,1.2812-1.664,2.7309,0,1.7341-0.699,2.5831-2.5,3.0351-2.685,0.6737-3.487,3.4106-1,3.4106,0.825,0,1.5-0.645,1.5-1.433,0-0.7875,0.9-1.7179,2-2.067s2-1.0545,2-1.5674,0.675-0.9326,1.5-0.9326c0.863,0,1.5-0.9028,1.5-2.125,0-1.8467,0.409-2.0431,3.125-1.5,1.719,0.3438,4.419,0.625,6,0.625s2.875,0.45,2.875,1-2.025,1-4.5,1c-3.333,0-4.5,0.3889-4.5,1.5,0,0.8333,0.889,1.5,2,1.5,1.1,0,2-0.45,2-1s0.482-1,1.071-1c1.417,0,3.929,2.5572,3.929,4,0,0.675,0.643,0.5,1.571-0.4286,0.865-0.8643,2.89-1.5714,4.5-1.5714,1.611,0,2.929-0.45,2.929-1,0-1.5864,2.7246-1.1602,3.3722,0.52759,0.33257,0.86667-0.27013,2.2608-1.393,3.2222-2.349,2.013-2.539,3.25-0.496,3.25,0.81452,0,1.7568-1.0992,2.094-2.4428,0.37311-1.4866,1.457-2.5634,2.769-2.751,1.6678-0.23845,2.1133-0.93066,1.9677-3.0572-0.19-2.7069-0.11-2.7488,5.66-2.7488,3.7483,0,6.0364,0.44976,6.3593,1.25,0.40351,1,0.52017,1,0.58333,0,0.16-2.4734,3.08-1.2869,3.08,1.25,0,1.6295,0.55953,2.5,1.607,2.5,0.99249,0,1.3944-0.55411,1.0509-1.4491-0.37166-0.96852-0.0755-1.2647,0.89301-0.89301,1.62,0.6211,2.02,6.3421,0.45,6.3421-0.55,0-1,0.45-1,1s0.44486,1,0.98857,1c1.48,0,5.01-3.27,5.01-4.6389,0-0.6569,0.56-1.4227,1.25-1.7016,0.94-0.3817,0.88-0.7697-0.25-1.5681-1.29-0.9154-1.26-1.0629,0.25-1.0761,0.96-0.0084,1.75-0.4653,1.75-1.0153s0.675-1,1.5-1c1.0833,0,1.5,1.1111,1.5,4,0,2.2,0.45,4,1,4s1,0.675,1,1.5-0.45,1.5-1,1.5-1,0.675-1,1.5c0,1.3185-8.1667,1.5-67.5,1.5h-67.5v-6.918zm35,2.918c0-0.55-0.45-1-1-1s-1,0.45-1,1,0.45,1,1,1,1-0.45,1-1zm8.9013-0.90128c1.046-1.046,2.167-2.9585,2.491-4.2503s0.331-1.7862,0.015-1.0987c-0.315,0.6875-1.211,1.25-1.99,1.25s-1.417,0.675-1.417,1.5-0.45,1.5-1,1.5-1,0.675-1,1.5c0,1.9762,0.60782,1.8922,2.9013-0.40128zm34.492,0.31949c1.099-2.8638,0.637-3.4237-1.393-1.686-1.1,0.94185-2,2.0624-2,2.4902,0,1.448,2.7818,0.78876,3.393-0.80403zm34.607,0.582c0-0.55-0.45-1-1-1s-1,0.45-1,1,0.45,1,1,1,1-0.45,1-1zm6-0.5c0-0.825-0.45-1.5-1-1.5s-1,0.675-1,1.5,0.45,1.5,1,1.5,1-0.675,1-1.5zm-67-2c0-0.825-0.45-1.5-1-1.5s-1,0.675-1,1.5,0.45,1.5,1,1.5,1-0.675,1-1.5zm55.638,0c0.31-0.825,1.2-1.5,1.97-1.5,0.76,0,1.39-0.675,1.39-1.5,0-0.8333-0.89-1.5-2-1.5-1.1111,0-2,0.66667-2,1.5,0,0.825-0.45,1.5-1,1.5s-1,0.675-1,1.5,0.46412,1.5,1.0314,1.5c0.56727,0,1.2904-0.675,1.607-1.5zm8.36-1.0833c0-0.87083-0.53437-1.4052-1.1875-1.1875-1.85,0.618-2.16,2.7708-0.39,2.7708,0.87,0,1.58-0.712,1.58-1.5833zm6,0.5833c0-0.55-0.45-1-1-1s-1,0.45-1,1,0.45,1,1,1,1-0.45,1-1zm-64.271-4.6042c-0.332-0.3323-1.195-0.3678-1.917-0.0789-0.79773,0.31923-0.56078,0.55618,0.60417,0.60417,1.0542,0.043421,1.6448-0.19293,1.3125-0.52522zm6,0c-0.332-0.3323-1.195-0.3678-1.917-0.0789-0.79773,0.31923-0.56078,0.55618,0.60417,0.60417,1.0542,0.043421,1.6448-0.19293,1.3125-0.52522zm24.271-1.2792c0-1.3932,3.265-1.8937,8.851-1.3569,7.539,0.7242,6.279,2.2403-1.851,2.2403-3.85,0-7-0.3975-7-0.8834z"/>
  <path id="path3013" fill="#4fafe4" d="m2.1219,11.286c-0.1027-3.1428,0.088628-6.9678,0.42517-8.5,0.5975-2.7207,0.7741-2.786,7.5319-2.786,3.807,0,6.921,0.40122,6.921,0.89159,0,0.49041,1.125,1.1739,2.5,1.519s2.5,1.2939,2.5,2.1085c0,0.8145,0.675,1.4809,1.5,1.4809,1.8394,0,2.0553,4.6093,0.25,5.3377-0.94006,0.37932-0.91685,0.52396,0.09362,0.58333,0.73899,0.04342,1.5922-0.8715,1.8959-2.0331,0.47416-1.8132,1.0978-2.0389,4.4064-1.5952,2.801,0.3758,3.854,0.1533,3.854-0.8145,0-0.7324,0.788-1.5373,1.75-1.7889,1.667-0.4355,1.667-0.4628,0-0.5733-0.962-0.0638-1.75-0.5047-1.75-0.9797,0-1.0726,16.574-2.002,24.29-1.3621,6.155,0.5104,7.918,2.2258,2.287,2.2258-2.47,0-4.258,0.8352-6.423,3-3.656,3.656-5.154,3.801-5.154,0.5,0-2.3946,1.471-3.4799,2.1667-1.5985,0.18333,0.49581,0.91358,0.27081,1.6228-0.5,1.082-1.1768,0.813-1.4015-1.679-1.4015-3.157,0-6.111,2.2097-6.111,4.5714,0,0.7856-0.45,1.4286-1,1.4286s-1,0.675-1,1.5,0.675,1.5,1.5,1.5,1.5-0.675,1.5-1.5,0.675-1.5,1.5-1.5,1.5,0.675,1.5,1.5,0.48214,1.5,1.0714,1.5c1.385,0,3.929-2.544,3.929-3.929,0-0.5889,0.689-1.071,1.531-1.071,0.84226,0,1.7904-0.675,2.107-1.5,0.69333-1.8068,5.3552-2.0235,5.3769-0.25,0.01024,0.83588,0.34154,0.75305,1-0.25,0.70073-1.0674,1.201-1.1714,1.7347-0.36066,0.54414,0.82661,1.1039,0.75799,2.0394-0.25,1.061-1.1425,1.016-1.3893-0.25-1.3893-0.846,0-1.539-0.45-1.539-1s0.6382-1,1.4182-1c0.78002,0,2.13-0.27314,3-0.60699,1.038-0.3983,1.582-0.0545,1.582,1,0,0.8839-0.398,1.607-0.883,1.607-0.486,0-1.119,0.9-1.407,2-0.353,1.3515-1.364,2-3.116,2-1.427,0-2.594,0.45-2.594,1s0.45,1,1,1,1,0.675,1,1.5c0,2.4824,1.7788,1.7212,6.118-2.618,3.1832-3.1832,4.3148-3.8075,4.9847-2.75,0.632,0.9981,0.871,1.03,0.882,0.118,0.008-0.6875,0.465-1.25,1.015-1.25,1.225,0,1.338,2.7035,0.132,3.1667-0.477,0.1833-1.182,1.3453-1.567,2.5833-0.518,1.666-0.298,2.25,0.849,2.25,0.851,0,1.83-1.125,2.175-2.5,0.464-1.8463,1.319-2.5206,3.269-2.5789,1.453-0.0435,2.08-0.306,1.392-0.5834-1.512-0.6101-1.666-2.3377-0.208-2.3377,0.57321,0,1.6307,0.5497,2.3499,1.2215,1.0742,1.0035,1.0428,1.4865-0.17613,2.7054-1.1675,1.1675-1.2074,1.576-0.18708,1.9161,0.7132,0.23773,1.8703-0.3521,2.5712-1.3107,1.708-2.3355,11.4-3.1847,11.4-0.9987,0,0.8067-0.68,1.4667-1.5,1.4667-0.825,0-1.5,0.675-1.5,1.5,0,0.83333,0.88889,1.5,2,1.5,1.1,0,2-0.50972,2-1.1327,0-1.034,3.73-4.867,4.73-4.867,0.23455,0,0.12994,1.35-0.23246,3-0.56728,2.5828-0.36972,3,1.4205,3,1.14,0,2.08-0.482,2.08-1.071,0-0.58928,0.675-1.7464,1.5-2.5714,0.82-0.8259,1.5-2.3687,1.5-3.4294,0-1.4762-0.7-1.9286-3-1.9286-1.65,0-3-0.45-3-1s2.025-1,4.5-1,4.5,0.45,4.5,1,1.35,1,3,1c2.2963,0,3,0.45238,3,1.9286,0,1.0607-0.675,2.6036-1.5,3.4286-1.7,1.697-2.01,4.643-0.5,4.643,0.55,0,1.0078-0.5625,1.0173-1.25,0.01-1.249,4.22-5.75,5.37-5.75,0.34,0,0.61,0.9,0.61,2s-0.45,2-1,2-1,0.45-1,1,1.0892,1,2.4205,1c1.8764,0,2.5687-0.6744,3.0795-3,0.3624-1.65,1.0244-3,1.471-3,0.44667,0,1.0945-1.125,1.4396-2.5,1.04-4.1316,3.59-3.1242,3.59,1.4167,0,2.1977,0.54862,4.138,1.25,4.4211,1,0.40351,1,0.52018,0,0.58333-0.69,0.043-1.25,1.204-1.25,2.579v2.5h-14c-8.6667,0-14-0.38095-14-1,0-0.55-0.675-1-1.5-1s-1.5,0.45-1.5,1c0,0.65381-17.949,1-51.846,1h-51.845l-0.1867-5.714zm28.878,1.714c0-0.55-0.45-1-1-1s-1,0.45-1,1,0.45,1,1,1,1-0.45,1-1zm6,0c0-0.55-0.675-1-1.5-1s-1.5,0.45-1.5,1,0.675,1,1.5,1,1.5-0.45,1.5-1zm5-1.5c0-2.7966-0.486-3.0591-2.383-1.287-0.946,0.884-1.002,1.551-0.208,2.462,1.704,1.951,2.591,1.548,2.591-1.175zm18.342,1.0509c0.372-0.969,0.076-1.265-0.893-0.893-1.582,0.607-1.994,2.342-0.556,2.342,0.49116,0,1.1432-0.65208,1.4491-1.4491zm33.647-0.273c2.173-1.861,2.61-3.278,1.011-3.278-1.016,0-5,3.5856-5,4.5,0,1.058,2.0642,0.42546,3.9886-1.2222zm22.011,0.305c0-0.77917,0.39052-1.5667,0.86782-1.75,0.47729-0.18333,1.2128-1.441,1.6345-2.7947,0.72965-2.3425,0.61529-2.31-2.3678,0.67308-3.4,3.4076-3.98,5.2886-1.63,5.2886,0.825,0,1.5-0.6375,1.5-1.4167zm17,0.417c0-0.55-0.45-1-1-1s-1,0.45-1,1,0.45,1,1,1,1-0.45,1-1zm-108-9c0-0.55,0.9-1,2-1s2,0.45,2,1-0.9,1-2,1-2-0.45-2-1zm56,0c0-0.55,1.8-1,4-1s4,0.45,4,1-1.8,1-4,1-4-0.45-4-1zm12,0c0-0.55,1.35-1,3-1s3,0.45,3,1-1.35,1-3,1-3-0.45-3-1z"/>
  <path id="path3011" fill="#49a8dc" d="m2,16.057c0-0.51838,1.8775-1.0809,4.1723-1.25,2.3753-0.175,4.2807-0.856,4.4247-1.582,0.139-0.701,0.024-0.814-0.255-0.25-0.28,0.564-2.2285,1.025-4.3305,1.025h-3.8218l0.3119-4.25c0.17156-2.3375,0.35389-5.4875,0.40517-7,0.096299-2.8402,2.4209-3.8336,3.5099-1.5,0.46667,1,0.7,1,1.1667,0,0.6894-1.4774,9.4166-1.7268,9.4166-0.26905,0,0.53955,1.125,1.2634,2.5,1.6084,2.415,0.6061,3.538,2.4106,1.5,2.4106-0.55,0-1,0.675-1,1.5s0.675,1.5,1.5,1.5,1.5-0.45,1.5-1,0.45-1,1-1,1,0.675,1,1.5-0.45,1.5-1,1.5-1,0.675-1,1.5-0.675,1.5-1.5,1.5-1.5,0.45-1.5,1,1.1164,1,2.4809,1c1.8124,0,2.65-0.67373,3.1084-2.5,0.3451-1.375,1.2622-2.5,2.0381-2.5,1.0053,0,1.2304,0.71829,0.78318,2.5-0.47216,1.8812-0.23407,2.5,0.9619,2.5,0.87415,0,1.8717-1.125,2.2168-2.5,0.345-1.375,1.029-2.5,1.519-2.5,0.491,0,0.892-0.642,0.892-1.4267,0-0.7846,0.788-1.6324,1.75-1.884,1.667-0.4355,1.667-0.4628,0-0.5733-3.029-0.2008-1.897-2.116,1.25-2.116,2.8333,0,3,0.22222,3,4,0,2.2-0.45,4-1,4s-1-0.4456-1-0.99021c0-0.5448-0.9-0.2198-2,0.722-3.107,2.66-2.441,3.268,3.579,3.268,5.3,0,5.81-0.231,10.2-4.6214l4.622-4.6215-6.201,0.7196c-5.314,0.6168-6.2,0.4913-6.2-0.8785,0-1.2143,1.141-1.6421,4.75-1.7811,5.751-0.2214,10.48,0.0795,11.107,0.7069,0.637,0.6369-6.505,7.476-7.807,7.476-0.578,0-1.05,0.675-1.05,1.5s0.675,1.5,1.5,1.5,1.5-0.45,1.5-1,0.675-1,1.5-1,1.5-0.675,1.5-1.5,0.45-1.5,1-1.5,1,1.125,1,2.5c0,1.8333,0.53333,2.5,2,2.5,1.1,0,2-0.45,2-1s0.675-1,1.5-1,1.5,0.45,1.5,1c0,1.2238,4.7012,1.3441,5.1667,0.13218,0.183-0.477,1.345-1.182,2.583-1.567,1.674-0.521,2.25-0.298,2.25,0.868,0,2.08,5.567,2.139,6.362,0.067,0.745-1.944,2.638-1.944,2.638,0,0,2.0068,2.7375,1.9054,4.8214-0.17859,1.5714-1.5715,1.6992-1.5715,2.0019,0,0.343,1.777,3.177,2.383,3.177,0.679,0-0.55,0.675-1,1.5-1s1.5,0.45,1.5,1c0,1.4522,5.7264,1.2291,6.4167-0.25,0.46666-1,0.7-1,1.1667,0,0.85,1.829,6.41,1.613,6.41-0.25,0-0.825,0.45-1.5,1-1.5s1,0.675,1,1.5c0,0.83333,0.88889,1.5,2,1.5,1.1,0,2-0.46882,2-1.0418,0-1.6815,3.7419-5.2109,5.0591-4.7718,0.85824,0.28608,0.73494,0.8767-0.42519,2.0368-0.89,0.899-1.63,2.341-1.63,3.206,0,0.864-0.64,1.571-1.42,1.571-0.77916,0-1.6436,0.5625-1.921,1.25-0.40351,1-0.52017,1-0.58333,0-0.09-1.473-3.08-1.716-3.08-0.25,0,0.55-0.675,1-1.5,1s-1.5-0.45-1.5-1-0.675-1-1.5-1-1.5,0.45-1.5,1c0,1.5557-21.707,1.3128-22.338-0.25-0.40351-1-0.52018-1-0.58333,0-0.1136,1.7987-30.691,1.7987-31.417,0-0.40351-1-0.52018-1-0.58333,0-0.097,1.543-49.079,1.85-49.079,0.307zm119-0.68633c0-1.3627,0.77612-1.5285,4.75-1.0147,4.6687,0.60359,8.4402-0.49956,6.9167-2.0231-0.42648-0.42648-1.2304-0.11344-1.7866,0.69563-0.74568,1.0849-0.82828,0.81472-0.31463-1.029,0.38307-1.375,1.3126-2.8599,2.0655-3.2997,0.74-0.4398,1.36-1.9023,1.36-3.25,0-2.7521,1.47-3.2842,2.39-0.8685,0.34,0.87,0.61,4.02,0.61,7.0002v5.418h-8c-6.7257,0-8-0.25946-8-1.6288zm-63-4.871c0-0.825,0.45-1.5,1-1.5s1-0.75,1-1.6667c0-0.9166,0.247-1.4197,0.549-1.118,0.809,0.809-0.617,5.7847-1.657,5.7847-0.491,0-0.892-0.675-0.892-1.5zm65.25,0.81067c0.96-0.252,1.75-1.1,1.75-1.8843,0-0.7847,0.45-1.4267,1-1.4267s1,0.62686,1,1.393c0,1.4204-2.2255,2.7001-4.3318,2.491-0.64251-0.0638-0.38071-0.3218,0.58179-0.57332zm-48.25-1.811c0-0.825,0.638-1.5,1.417-1.5s1.617-0.5625,1.863-1.25c0.259-0.7271,0.817-0.879,1.333-0.3631s0.364,1.0737-0.363,1.3333c-0.688,0.2456-1.25,1.084-1.25,1.8631,0,0.7787-0.675,1.4167-1.5,1.4167s-1.5-0.675-1.5-1.5zm9,0.5c0-0.55,0.45-1,1-1s1,0.45,1,1-0.45,1-1,1-1-0.45-1-1zm-17.39-2.4274c0.71-1.8486,3.753-2.1613,3.14-0.3226-0.22891,0.6875-1.1648,1.3952-2.0798,1.5726-1.1601,0.225-1.481-0.15332-1.0601-1.25zm-41.61-3.5726c0-0.55,0.675-1,1.5-1s1.5,0.45,1.5,1-0.675,1-1.5,1-1.5-0.45-1.5-1zm36,0c0-0.55,0.45-1,1-1s1,0.45,1,1-0.45,1-1,1-1-0.45-1-1zm22,0c0-0.55,1.35-1,3-1s3,0.45,3,1-1.35,1-3,1-3-0.45-3-1zm10,0c0-0.55,1.35-1,3-1s3,0.45,3,1-1.35,1-3,1-3-0.45-3-1zm14,0c0-0.55,0.45-1,1-1s1,0.45,1,1-0.45,1-1,1-1-0.45-1-1zm5,0c0-0.55,0.675-1,1.5-1s1.5,0.45,1.5,1-0.675,1-1.5,1c-0.82,0-1.5-0.45-1.5-1z"/>
  <path id="path3009" fill="#34a5e2" d="m3,16.06c0-0.5168,1.6527-1.0793,3.6727-1.25,4.3863-0.37,5.6223-2.527,1.7137-2.988-2.9095-0.343-4.6398-2.822-1.9697-2.822,0.8708,0,1.5833-0.675,1.5833-1.5,0-1.9923-0.9867-1.8964-2.5724,0.25-0.9848,1.3329-1.5742,1.4729-2.4731,0.5871-1.3307-1.3111-0.4202-3.4663,1.3709-3.2451,2.332,0.2878,3.6746-0.1111,3.6746-1.092,0-0.55-1.125-1-2.5-1-1.5556,0-2.5-0.5667-2.5-1.5,0-1.8131,2.5985-2.0032,3.4167-0.25,0.46667,1,0.7,1,1.1667,0,0.8679-1.8598,8.0626-1.5333,10.406,0.4722,1.106,0.9473,2.011,2.7473,2.011,4,0,1.358,0.606,2.2778,1.5,2.2778,0.825,0,1.5-0.45,1.5-1s0.45-1,1-1,1,0.675,1,1.5-0.45,1.5-1,1.5-1,0.675-1,1.5-0.675,1.5-1.5,1.5-1.5,0.45-1.5,1c0,1.985,4.1493,0.94191,6.5477-1.646,1.348-1.4553,2.452-2.1162,2.452-1.4686s-0.675,1.4366-1.5,1.7526c-2.358,0.905-1.753,2.362,0.981,2.362,1.812,0,2.65-0.674,3.108-2.5,0.345-1.375,1.254-2.5,2.019-2.5,1.859,0,1.781,1.914-0.108,2.638-3.602,1.383-0.906,2.362,6.5,2.362,6.4444,0,8,0.29167,8,1.5,0,1.8163-1.6351,1.9912-2.3377,0.25-0.40351-1-0.52018-1-0.58333,0-0.097,1.537-42.079,1.846-42.079,0.31zm10.729-10.664c-0.332-0.3323-1.195-0.3678-1.917-0.0789-0.79773,0.31923-0.56078,0.55618,0.60417,0.60417,1.0542,0.043421,1.6448-0.19293,1.3125-0.52522zm35.271,10.604c0-0.55,0.45-1,1-1s1,0.45,1,1-0.45,1-1,1-1-0.45-1-1zm2.7543-0.25c-0.688-1.872,0.228-3.75,1.829-3.75,0.779,0,1.417-0.675,1.417-1.5s0.45-1.5,1-1.5,1,1.125,1,2.5c0,2.3922,0.2619,2.5,6.0714,2.5,4.0635,0,6.5675-0.49608,7.5714-1.5,0.825-0.825,1.9179-1.5,2.4286-1.5,0.511,0,0.929,0.675,0.929,1.5,0,1.1795,1.3889,1.5,6.5,1.5,3.575,0,6.5-0.40186,6.5-0.89301,0-0.49116,0.65208-1.1432,1.4491-1.4491,0.96852-0.37166,1.2647-0.07551,0.89301,0.89301-0.377,0.983,0.122,1.449,1.551,1.449,1.159,0,2.107-0.45,2.107-1s0.675-1,1.5-1,1.5,0.45,1.5,1c0,1.4522,5.7264,1.2291,6.4167-0.25,0.46666-1,0.7-1,1.1667,0,0.75758,1.6234,6.0758,1.6234,6.8333,0,0.46666-1,0.7-1,1.1667,0,0.69,1.483,4.41,1.693,4.41,0.25,0-0.55,0.45-1,1-1s1,0.675,1,1.5c0,0.99048-0.99074,1.5-2.9167,1.5-1.6042,0-3.1792,0.5625-3.5,1.25-0.46666,1-0.7,1-1.1667,0-0.69-1.483-4.41-1.693-4.41-0.25,0,1.5326-15.715,1.2921-16.338-0.25-0.40351-1-0.52018-1-0.58333,0-0.093,1.473-3.079,1.716-3.079,0.25,0-0.55-0.675-1-1.5-1s-1.5,0.45-1.5,1-1.35,1-3,1-3-0.45-3-1-0.675-1-1.5-1-1.5,0.45-1.5,1c0,1.4468-3.74,1.2313-4.3377-0.25-0.40351-1-0.52018-1-0.58333,0-0.11135,1.7631-16.676,1.7631-17.325,0zm69.246-0.25c0-1.57,1.7383-1.9214,4.4182-0.89301,2.61,1.002,1.79,2.393-1.42,2.393-2,0-3-0.5-3-1.5zm10,0.5c0-0.55,0.39148-1,0.86995-1s1.1007-2.0472,1.3827-4.5494c0.56484-5.0112,1.0843-5.9784,2.6808-4.9917,1.1479,0.70942,1.455,7.3653,0.45954,9.9593-0.65,1.712-5.39,2.223-5.39,0.581zm-128.32-3.387c-0.3733-0.973,0.0425-1.236,1.393-0.883,2.2142,0.579,2.6106,2.27,0.5322,2.27-0.7662,0-1.6325-0.624-1.9252-1.387zm55.318-2.613c0-0.55,0.45-1,1-1s1-0.75,1-1.6667c0-0.9166,0.266-1.4005,0.591-1.0753,0.835,0.8342-0.532,4.742-1.658,4.742-0.513,0-0.933-0.45-0.933-1zm19.079-0.5833c0.04798-1.1649,0.28494-1.4019,0.60417-0.60417,0.28887,0.72188,0.25334,1.5844-0.07895,1.9167-0.33229,0.33229-0.56864-0.25833-0.52522-1.3125zm47.921,0.5833c0-0.55,0.45-1,1-1s1,0.45,1,1-0.45,1-1,1-1-0.45-1-1zm-87.921-2.75c-0.053-1.5116,0.495-2.245,1.671-2.2347,1.0794,0.00945,1.3285,0.29683,0.64994,0.75-0.605,0.4041-1.357,1.4097-1.671,2.2347-0.382,1.0023-0.597,0.7534-0.65-0.75zm16.921-2.8436c0-0.7735,0.9-1.4064,2-1.4064s2,0.39752,2,0.88337-0.9,1.1187-2,1.4064c-1.2999,0.33992-2,0.030682-2-0.88337zm-5-0.4064c0-0.55,0.675-1,1.5-1s1.5,0.45,1.5,1-0.675,1-1.5,1-1.5-0.45-1.5-1zm58,0c0-0.55,0.45-1,1-1s1,0.45,1,1-0.45,1-1,1-1-0.45-1-1z"/>
  <path id="path3007" fill="#289cda" d="M10.392,14.573c0.451-1.796,0.155-2.545-1.1414-2.884-1.6666-0.435-1.6666-0.463-0.0006-0.573,0.962-0.064,1.75-0.791,1.75-1.616s0.675-1.5,1.5-1.5,1.5-0.675,1.5-1.5-0.707-1.5-1.571-1.5c-0.865,0-2.247-0.675-3.0719-1.5-1.3333-1.3333-1.2142-1.5,1.0719-1.5,1.414,0,2.571-0.45,2.571-1,0-1.5722,2.722-1.1674,3.362,0.5,0.316,0.825,1.264,1.5,2.107,1.5,0.842,0,1.531,0.45,1.531,1s-0.9,1-2,1-2,0.62686-2,1.393c0,0.76616-0.675,1.652-1.5,1.9686-2.2234,0.85321-1.8181,2.438,0.75,2.9326l2.25,0.43337-2.25,0.13618c-3.2281,0.19538-2.7853,2.1274,0.5,2.1815,1.5125,0.02492,8.0375,0.08071,14.5,0.12396,9.2692,0.06204,11.75,0.36916,11.75,1.4547,0,1.8574-13.553,1.9759-14.417,0.12604-0.46667-1-0.7-1-1.1667,0-0.395,0.849-3.165,1.251-8.608,1.251-7.9957,0-8.0226-0.009-7.416-2.427zm32.608,1.494c0-1.126,3.9078-2.4929,4.742-1.6587,0.325,0.326-0.159,0.592-1.075,0.592-0.917,0-1.667,0.45-1.667,1s-0.45,1-1,1-1-0.41968-1-0.93261zm10.197-0.62004c-1.1396-1.2914-0.13612-1.4479,8-1.248,5.1167,0.12569,8.2906,0.38856,7.0531,0.58416s-2.25,0.77434-2.25,1.2861c0,1.4157-7.7575,1.1184-8.3377-0.31955-0.40351-1-0.52018-1-0.58333,0-0.10645,1.6855-2.2768,1.5163-3.882-0.30265zm24.441,0.053c-0.43386-1.1306,0.17302-1.5,2.4644-1.5,2.7023,0,2.8734,0.16667,1.54,1.5-0.825,0.825-1.934,1.5-2.4644,1.5-0.53044,0-1.2235-0.675-1.54-1.5zm18.362,0.57c0-0.51175-1.0125-1.1255-2.25-1.3638-1.6271-0.31339-1.3503-0.47107,1-0.56955,2.283-0.095,3.25,0.31,3.25,1.364,0,0.825-0.45,1.5-1,1.5s-1-0.419-1-0.93zm3,0.03744c0-1.094,2.48-2.107,5.15-2.107,1.7686,0,1.823,0.16667,0.48964,1.5-1.62,1.626-5.64,2.058-5.64,0.607zm-12.188-1.79c0.72188-0.28887,1.5844-0.25334,1.9167,0.07895,0.33229,0.33229-0.25833,0.56864-1.3125,0.52522-1.1649-0.04798-1.4019-0.28494-0.60417-0.60417zm23,0c0.72187-0.28887,1.5844-0.25334,1.9167,0.07895,0.33229,0.33229-0.25834,0.56864-1.3125,0.52522-1.165-0.04798-1.4019-0.28494-0.60417-0.60417zm6,0c0.72187-0.28887,1.5844-0.25334,1.9167,0.07895,0.33229,0.33229-0.25834,0.56864-1.3125,0.52522-1.165-0.04798-1.4019-0.28494-0.60417-0.60417zm17.968-1.4769c-0.76-2.269,0.47-6.84,1.83-6.84,0.95,0,1.39,1.2566,1.39,4,0,2.7843-0.43056,4-1.4167,4-0.77916,0-1.5907-0.52199-1.8033-1.16zm-116.78-5.2567c0-0.8708,0.712-1.5833,1.583-1.5833,1.766,0,1.459,2.1528-0.395,2.7708-0.654,0.2177-1.188-0.3166-1.188-1.1875zm-14-6.0833c0-0.825,0.45-1.5,1-1.5s1,0.675,1,1.5-0.45,1.5-1,1.5-1-0.675-1-1.5z"/>
 </g>
</svg>
