<?xml version="1.0" encoding="UTF-8" standalone="no"?>
<!-- Created with Inkscape (http://www.inkscape.org/) -->
<svg id="svg2" xmlns:rdf="http://www.w3.org/1999/02/22-rdf-syntax-ns#" xmlns="http://www.w3.org/2000/svg" height="22.551" width="137" version="1.1" xmlns:cc="http://creativecommons.org/ns#" xmlns:dc="http://purl.org/dc/elements/1.1/">
 <metadata id="metadata8">
  <rdf:RDF>
   <cc:Work rdf:about="">
    <dc:format>image/svg+xml</dc:format>
    <dc:type rdf:resource="http://purl.org/dc/dcmitype/StillImage"/>
    <dc:title/>
   </cc:Work>
  </rdf:RDF>
 </metadata>
 <path id="path3017" fill="#78c1e9" d="m0.00069,8.5509,0-8.5,8.4167,0c5.8426,0,8.5452,0.38229,8.8369,1.25,0.56724,1.6874,25.868,1.1438,26.987-0.57982,0.5656-0.87122,0.97986-0.82901,1.6215,0.16522,0.68532,1.0619,8.6019,1.4256,38.659,1.7759l37.798,0.4405,2.2929,2.4741c2.4003,2.5899,4.3884,3.2254,4.3884,1.4027,0-1.5932,2.6326-3.9286,4.4286-3.9286,0.86429,0,1.5714,0.675,1.5714,1.5s0.45,1.5,1,1.5,1,1.8,1,4-0.45,4-1,4-1,0.675-1,1.5c0,1.3185-8.1667,1.5-67.5,1.5h-67.5v-8.5001zm34.583,13c0-0.55-0.45-1-1-1s-1,0.45-1,1,0.45,1,1,1,1-0.45,1-1zm85-2.9286c0-0.58929-0.45-1.0714-1-1.0714s-1,0.4132-1,0.91821c0,0.50502-0.31232,1.7425-0.69405,2.75-0.65008,1.7158-0.58673,1.7255,1,0.15322,0.93173-0.92322,1.694-2.1607,1.694-2.75zm-17-3.2937c0-1.448-2.7818-0.78877-3.393,0.80403-1.099,2.864-0.6365,3.4239,1.393,1.6862,1.1-0.94185,2-2.0624,2-2.4902zm5,3.2222c0-0.55-0.45-1-1-1s-1,0.45-1,1,0.45,1,1,1,1-0.45,1-1zm-23.165-3.0739c0.45164-1.2547,7.1667-1.1855,7.1667,0.07394,0,0.55,1.125,1,2.5,1,1.5556,0,2.5-0.56667,2.5-1.5,0-1.2222-1.6667-1.5-9-1.5-8.4876,0-9,0.12004-9,2.1084,0,1.7988,0.40378,2.0082,2.75,1.4261,1.5125-0.37529,2.9-1.0991,3.0833-1.6084zm-4.8333,0.07394c0-0.55,0.45-1,1-1s1,0.45,1,1-0.45,1-1,1-1-0.45-1-1zm-61.658-0.449c0.37166-0.96852,0.07551-1.2647-0.89301-0.89301-1.5817,0.60697-1.9937,2.3421-0.55606,2.3421,0.49116,0,1.1432-0.65208,1.4491-1.4491zm54.658,0.5224c0-0.50967,0.7875-1.1325,1.75-1.384,0.9625-0.25153,0.30162-0.50952-1.4686-0.57332-2.4766-0.08926-3.0859,0.2298-2.643,1.384,0.62935,1.6401,2.3616,2.0606,2.3616,0.57332zm42-0.07332c0-0.55-0.675-1-1.5-1s-1.5,0.45-1.5,1,0.675,1,1.5,1,1.5-0.45,1.5-1zm-48.729-1.656c-0.67703-0.27392-2.027-0.2906-3-0.03705-0.97297,0.25354-0.41903,0.47766,1.231,0.49804s2.4461-0.18706,1.769-0.46099z"/>
 <path id="path3015" fill="#69b9e5" d="m0.00069,10.133c0-10.176-0.084409-10.082,9-10.082,5.9984,0,7.9182,0.34439,8.3616,1.5,0.39447,1.028,2.0016,1.5,5.107,1.5,2.4923,0,4.5314,0.45,4.5314,1s-0.675,1-1.5,1-1.5,0.675-1.5,1.5,0.45,1.5,1,1.5,1-0.45,1-1,1.6875-1.0613,3.75-1.1362c2.3214-0.084301,2.8928-0.30128,1.5-0.56955-1.2375-0.23835-2.25-1.0612-2.25-1.8285,0-1.158,3.7674-1.3586,22.164-1.1804,12.19,0.11806,21.415,0.36016,20.5,0.53799-1.0022,0.19468-1.6644,1.2813-1.6644,2.7309,0,1.7341-0.69932,2.5831-2.5,3.0351-2.6846,0.67379-3.4871,3.4106-1,3.4106,0.825,0,1.5-0.64468,1.5-1.4326,0-0.78794,0.9-1.7183,2-2.0674,1.1-0.34913,2-1.0545,2-1.5674,0-0.51294,0.675-0.93261,1.5-0.93261,0.86274,0,1.5-0.90278,1.5-2.125,0-1.8467,0.40931-2.0431,3.125-1.5,1.7188,0.34375,4.4188,0.625,6,0.625s2.875,0.45,2.875,1-2.025,1-4.5,1c-3.3333,0-4.5,0.38889-4.5,1.5,0,0.83333,0.88889,1.5,2,1.5,1.1,0,2-0.45,2-1s0.48214-1,1.0714-1c1.417,0,3.9286,2.5572,3.9286,4,0,0.67532,0.64286,0.5,1.5714-0.42857,0.86428-0.86429,2.8893-1.5714,4.5-1.5714s2.9286-0.45,2.9286-1c0-1.5864,2.7246-1.1602,3.3722,0.52759,0.33257,0.86667-0.27013,2.2608-1.393,3.2222-2.3512,2.0131-2.5408,3.2502-0.49826,3.2502,0.81452,0,1.7568-1.0992,2.094-2.4428,0.37311-1.4866,1.457-2.5634,2.769-2.751,1.6678-0.23845,2.1133-0.93066,1.9677-3.0572-0.1854-2.7071-0.099-2.749,5.6667-2.749,3.7483,0,6.0364,0.44976,6.3593,1.25,0.40351,1,0.52017,1,0.58333,0,0.15622-2.4734,3.079-1.2869,3.079,1.25,0,1.6295,0.55953,2.5,1.607,2.5,0.99249,0,1.3944-0.55411,1.0509-1.4491-0.37166-0.96852-0.0755-1.2647,0.89301-0.89301,1.6186,0.62113,2.0237,6.3421,0.44907,6.3421-0.55,0-1,0.45-1,1s0.44486,1,0.98857,1c1.4784,0,5.0114-3.2704,5.0114-4.6389,0-0.65693,0.5625-1.4227,1.25-1.7016,0.94068-0.38169,0.87881-0.76971-0.25-1.568-1.2944-0.91541-1.2601-1.0629,0.25-1.0761,0.9625-0.00842,1.75-0.46531,1.75-1.0153,0-0.55,0.675-1,1.5-1,1.0833,0,1.5,1.1111,1.5,4,0,2.2,0.45,4,1,4s1,0.675,1,1.5-0.45,1.5-1,1.5-1,0.675-1,1.5c0,1.3185-8.1667,1.5-67.5,1.5h-67.5v-6.9182zm35,2.9182c0-0.55-0.45-1-1-1s-1,0.45-1,1,0.45,1,1,1,1-0.45,1-1zm8.9013-0.90128c1.0457-1.0457,2.1666-2.9582,2.4908-4.25,0.32422-1.2918,0.33114-1.7862,0.01539-1.0987-0.31576,0.6875-1.2116,1.25-1.9908,1.25-0.77917,0-1.4167,0.675-1.4167,1.5s-0.45,1.5-1,1.5-1,0.675-1,1.5c0,1.9762,0.60782,1.8922,2.9013-0.40128zm34.492,0.31949c1.099-2.864,0.6365-3.4239-1.393-1.6862-1.1,0.94185-2,2.0624-2,2.4902,0,1.448,2.7818,0.78876,3.393-0.80403zm34.607,0.58179c0-0.55-0.45-1-1-1s-1,0.45-1,1,0.45,1,1,1,1-0.45,1-1zm6-0.5c0-0.825-0.45-1.5-1-1.5s-1,0.675-1,1.5,0.45,1.5,1,1.5,1-0.675,1-1.5zm-67-2c0-0.825-0.45-1.5-1-1.5s-1,0.675-1,1.5,0.45,1.5,1,1.5,1-0.675,1-1.5zm55.638,0c0.31659-0.825,1.2025-1.5,1.9686-1.5,0.76615,0,1.393-0.675,1.393-1.5,0-0.83333-0.88889-1.5-2-1.5s-2,0.66667-2,1.5c0,0.825-0.45,1.5-1,1.5s-1,0.675-1,1.5,0.46412,1.5,1.0314,1.5c0.56727,0,1.2904-0.675,1.607-1.5zm8.3616-1.0833c0-0.87083-0.53437-1.4052-1.1875-1.1875-1.8542,0.61807-2.1618,2.7708-0.39583,2.7708,0.87083,0,1.5833-0.7125,1.5833-1.5833zm6,0.58333c0-0.55-0.45-1-1-1s-1,0.45-1,1,0.45,1,1,1,1-0.45,1-1zm-64.269-4.6041c-0.332-0.3323-1.195-0.3678-1.916-0.079-0.79773,0.31923-0.56078,0.55618,0.60417,0.60417,1.0542,0.043421,1.6448-0.19293,1.3125-0.52522zm6,0c-0.332-0.3323-1.195-0.3678-1.916-0.079-0.79773,0.31923-0.56078,0.55618,0.60417,0.60417,1.0542,0.043421,1.6448-0.19293,1.3125-0.52522zm24.271-1.2792c0-1.3932,3.2646-1.8937,8.8513-1.3569,7.5365,0.72416,6.2836,2.2403-1.8513,2.2403-3.85,0-7-0.39752-7-0.88337z"/>
 <path id="path3013" fill="#4fafe4" d="m0.12249,11.337c-0.1027-3.1428,0.0886-6.9678,0.4252-8.5,0.5975-2.7206,0.7742-2.7859,7.5329-2.7859,3.8063,0,6.9205,0.40122,6.9205,0.89159,0,0.49038,1.125,1.1739,2.5,1.5191,1.375,0.3451,2.5,1.2939,2.5,2.1084,0,0.81452,0.675,1.4809,1.5,1.4809,1.8394,0,2.0553,4.6093,0.25,5.3377-0.94006,0.37932-0.91685,0.52396,0.09362,0.58333,0.73899,0.04342,1.5922-0.8715,1.8959-2.0331,0.47416-1.8132,1.0978-2.0389,4.4064-1.5952,2.8012,0.37573,3.8541,0.15321,3.8541-0.81458,0-0.73234,0.7875-1.5373,1.75-1.7888,1.6667-0.43555,1.6667-0.46285,0-0.57332-0.9625-0.063801-1.75-0.50469-1.75-0.97974,0-1.0726,16.574-2.002,24.29-1.3621,6.1554,0.51045,7.9177,2.2258,2.2868,2.2258-2.4701,0-4.2583,0.83521-6.4231,3-3.6555,3.6555-5.1538,3.8009-5.1538,0.5,0-2.3946,1.471-3.4799,2.1667-1.5985,0.18333,0.49581,0.91358,0.27081,1.6228-0.5,1.0827-1.1768,0.81362-1.4015-1.6786-1.4015-3.157,0-6.1109,2.2097-6.1109,4.5714,0,0.78571-0.45,1.4286-1,1.4286s-1,0.675-1,1.5,0.675,1.5,1.5,1.5,1.5-0.675,1.5-1.5,0.675-1.5,1.5-1.5,1.5,0.675,1.5,1.5,0.48214,1.5,1.0714,1.5c1.3845,0,3.9286-2.5441,3.9286-3.9286,0-0.58929,0.68912-1.0714,1.5314-1.0714,0.84226,0,1.7904-0.675,2.107-1.5,0.69333-1.8068,5.3552-2.0235,5.3769-0.25,0.01024,0.83588,0.34154,0.75305,1-0.25,0.70073-1.0674,1.201-1.1714,1.7347-0.36066,0.54414,0.82661,1.1039,0.75799,2.0394-0.25,1.0604-1.1425,1.0159-1.3893-0.25-1.3893-0.84668,0-1.5394-0.45-1.5394-1s0.6382-1,1.4182-1c0.78002,0,2.13-0.27314,3-0.60699,1.038-0.39831,1.5818-0.054521,1.5818,1,0,0.88384-0.39752,1.607-0.88337,1.607s-1.1187,0.9-1.4064,2c-0.35342,1.3515-1.364,2-3.1166,2-1.4265,0-2.5936,0.45-2.5936,1s0.45,1,1,1,1,0.675,1,1.5c0,2.4824,1.7788,1.7212,6.118-2.618,3.1832-3.1832,4.3148-3.8075,4.9847-2.75,0.63232,0.99814,0.87079,1.0301,0.88197,0.11803,0.0084-0.6875,0.46531-1.25,1.0153-1.25,1.2252,0,1.3381,2.7035,0.13218,3.1667-0.4773,0.18333-1.1826,1.3458-1.5674,2.5833-0.51792,1.6658-0.29753,2.25,0.84876,2.25,0.85158,0,1.8307-1.125,2.1758-2.5,0.46339-1.8463,1.3182-2.5206,3.2691-2.5789,1.4529-0.043421,2.0791-0.30592,1.3916-0.58333-1.5122-0.61017-1.6657-2.3377-0.20779-2.3377,0.57321,0,1.6307,0.5497,2.3499,1.2215,1.0742,1.0035,1.0428,1.4865-0.17613,2.7054-1.1675,1.1675-1.2074,1.576-0.18708,1.916,0.7132,0.23773,1.8703-0.3521,2.5712-1.3107,1.7079-2.3357,11.4-3.1849,11.4-0.99888,0,0.80667-0.675,1.4667-1.5,1.4667s-1.5,0.675-1.5,1.5c0,0.83333,0.88889,1.5,2,1.5,1.1,0,2-0.50972,2-1.1327,0-1.0339,3.7272-4.8673,4.7325-4.8673,0.23455,0,0.12994,1.35-0.23246,3-0.56728,2.5828-0.36972,3,1.4205,3,1.1437,0,2.0795-0.48214,2.0795-1.0714,0-0.58928,0.675-1.7464,1.5-2.5714s1.5-2.3679,1.5-3.4286c0-1.4762-0.7037-1.9286-3-1.9286-1.65,0-3-0.45-3-1s2.025-1,4.5-1,4.5,0.45,4.5,1,1.35,1,3,1c2.2963,0,3,0.45238,3,1.9286,0,1.0607-0.675,2.6036-1.5,3.4286-1.6968,1.6968-2.0141,4.6429-0.5,4.6429,0.55,0,1.0078-0.5625,1.0173-1.25,0.0173-1.2495,4.2232-5.75,5.3737-5.75,0.33498,0,0.60905,0.9,0.60905,2s-0.45,2-1,2-1,0.45-1,1,1.0892,1,2.4205,1c1.8764,0,2.5687-0.6744,3.0795-3,0.3624-1.65,1.0244-3,1.471-3,0.44667,0,1.0945-1.125,1.4396-2.5,1.037-4.1316,3.5894-3.1242,3.5894,1.4167,0,2.1977,0.54862,4.138,1.25,4.4211,1,0.40351,1,0.52018,0,0.58333-0.6875,0.04342-1.25,1.2039-1.25,2.5789v2.5h-14c-8.6667,0-14-0.38095-14-1,0-0.55-0.675-1-1.5-1s-1.5,0.45-1.5,1c0,0.65381-17.949,1-51.846,1h-51.846l-0.18672-5.7141zm28.878,1.7141c0-0.55-0.45-1-1-1s-1,0.45-1,1,0.45,1,1,1,1-0.45,1-1zm6,0c0-0.55-0.675-1-1.5-1s-1.5,0.45-1.5,1,0.675,1,1.5,1,1.5-0.45,1.5-1zm5-1.5c0-2.7966-0.4859-3.0591-2.3828-1.2871-0.94636,0.88403-1.0027,1.5515-0.20779,2.462,1.7031,1.9507,2.5906,1.5482,2.5906-1.1748zm18.342,1.0509c0.37166-0.96852,0.07551-1.2647-0.89301-0.89301-1.5817,0.60697-1.9937,2.3421-0.55606,2.3421,0.49116,0,1.1432-0.65208,1.4491-1.4491zm33.646-0.27317c2.1736-1.8611,2.6108-3.2778,1.0114-3.2778-1.016,0-5,3.5856-5,4.5,0,1.058,2.0642,0.42546,3.9886-1.2222zm22.011,0.30557c0-0.77917,0.39052-1.5667,0.86782-1.75,0.47729-0.18333,1.2128-1.441,1.6345-2.7947,0.72965-2.3425,0.61529-2.31-2.3678,0.67308-3.4075,3.4075-3.9888,5.2883-1.6345,5.2883,0.825,0,1.5-0.6375,1.5-1.4167zm17,0.41667c0-0.55-0.45-1-1-1s-1,0.45-1,1,0.45,1,1,1,1-0.45,1-1zm-108-9.0009c0-0.55,0.9-1,2-1s2,0.45,2,1-0.9,1-2,1-2-0.45-2-1zm56,0c0-0.55,1.8-1,4-1s4,0.45,4,1-1.8,1-4,1-4-0.45-4-1zm12,0c0-0.55,1.35-1,3-1s3,0.45,3,1-1.35,1-3,1-3-0.45-3-1z"/>
 <path id="path3011" fill="#49a8dc" d="m0.00069,16.109c0-0.51838,1.8775-1.0809,4.1723-1.25,2.3753-0.17506,4.2811-0.85664,4.425-1.5825,0.139-0.70125,0.02397-0.81375-0.25561-0.25s-2.2282,1.025-4.3302,1.025h-3.8218l0.31193-4.2497c0.1723-2.3384,0.3546-5.4884,0.4059-7.0009,0.096299-2.8402,2.4209-3.8336,3.5099-1.5,0.46667,1,0.7,1,1.1667,0,0.68946-1.4774,9.4167-1.7268,9.4167-0.26905,0,0.53952,1.125,1.2633,2.5,1.6084,2.415,0.60612,3.5378,2.4106,1.5,2.4106-0.55,0-1,0.675-1,1.5s0.675,1.5,1.5,1.5,1.5-0.45,1.5-1,0.45-1,1-1,1,0.675,1,1.5-0.45,1.5-1,1.5-1,0.675-1,1.5-0.675,1.5-1.5,1.5-1.5,0.45-1.5,1,1.1164,1,2.4809,1c1.8124,0,2.65-0.67373,3.1084-2.5,0.3451-1.375,1.2622-2.5,2.0381-2.5,1.0053,0,1.2304,0.71829,0.78318,2.5-0.47216,1.8812-0.23407,2.5,0.9619,2.5,0.87415,0,1.8717-1.125,2.2168-2.5s1.0287-2.5,1.5191-2.5c0.49038,0,0.89159-0.642,0.89159-1.4267,0-0.78467,0.7875-1.6325,1.75-1.884,1.6667-0.43555,1.6667-0.46285,0-0.57332-3.0287-0.20076-1.8972-2.116,1.25-2.116,2.8333,0,3,0.22222,3,4,0,2.2-0.45,4-1,4s-1-0.4456-1-0.99021c0-0.54462-0.9-0.21961-2,0.72224-3.1068,2.6601-2.4411,3.268,3.5789,3.268,5.3005,0,5.8096-0.23068,10.2-4.6214l4.622-4.6218-6.201,0.7196c-5.3143,0.61679-6.2004,0.49123-6.2004-0.87856,0-1.2143,1.141-1.6421,4.75-1.7811,5.7514-0.22144,10.48,0.079494,11.107,0.7069,0.63684,0.63684-6.5058,7.476-7.8078,7.476-0.57726,0-1.0496,0.675-1.0496,1.5s0.675,1.5,1.5,1.5,1.5-0.45,1.5-1,0.675-1,1.5-1,1.5-0.675,1.5-1.5,0.45-1.5,1-1.5,1,1.125,1,2.5c0,1.8333,0.53333,2.5,2,2.5,1.1,0,2-0.45,2-1s0.675-1,1.5-1,1.5,0.45,1.5,1c0,1.2238,4.7012,1.3441,5.1667,0.13218,0.18333-0.4773,1.3458-1.1826,2.5833-1.5674,1.6739-0.52044,2.25-0.29824,2.25,0.86782,0,2.0802,5.5666,2.1391,6.3616,0.06739,0.74587-1.9437,2.6384-1.9437,2.6384,0,0,2.0068,2.7375,1.9054,4.8214-0.17859,1.5714-1.5715,1.6992-1.5715,2.0019,0,0.34228,1.777,3.1767,2.3825,3.1767,0.67859,0-0.55,0.675-1,1.5-1s1.5,0.45,1.5,1c0,1.4522,5.7264,1.2291,6.4167-0.25,0.46666-1,0.7-1,1.1667,0,0.85373,1.8294,6.4167,1.6127,6.4167-0.25,0-0.825,0.45-1.5,1-1.5s1,0.675,1,1.5c0,0.83333,0.88889,1.5,2,1.5,1.1,0,2-0.46882,2-1.0418,0-1.6815,3.7419-5.2109,5.0591-4.7718,0.85824,0.28608,0.73494,0.8767-0.42519,2.0368-0.89866,0.89866-1.6339,2.3411-1.6339,3.2054,0,0.86429-0.6375,1.5714-1.4167,1.5714-0.77916,0-1.6436,0.5625-1.921,1.25-0.40351,1-0.52017,1-0.58333,0-0.0931-1.4734-3.079-1.7159-3.079-0.25,0,0.55-0.675,1-1.5,1s-1.5-0.45-1.5-1-0.675-1-1.5-1-1.5,0.45-1.5,1c0,1.5557-21.707,1.3128-22.338-0.25-0.40351-1-0.52018-1-0.58333,0-0.1136,1.7987-30.691,1.7987-31.417,0-0.40351-1-0.52018-1-0.58333,0-0.107,1.544-49.089,1.85-49.089,0.308zm119-0.687c0-1.3627,0.77612-1.5285,4.75-1.0147,4.6687,0.60359,8.4402-0.49956,6.9167-2.0231-0.42648-0.42648-1.2304-0.11344-1.7866,0.69563-0.74568,1.0849-0.82828,0.81472-0.31463-1.029,0.38307-1.375,1.3126-2.8599,2.0655-3.2997,0.75296-0.43983,1.369-1.9023,1.369-3.25,0-2.7521,1.466-3.2842,2.393-0.86852,0.33385,0.86998,0.60699,4.02,0.60699,7v5.4182h-8c-6.7257,0-8-0.25946-8-1.6288zm-62.998-4.871c0-0.825,0.45-1.5,1-1.5s1-0.75,1-1.6667c0-0.91667,0.2469-1.4198,0.54867-1.118,0.80901,0.80901-0.61632,5.7847-1.6571,5.7847-0.49038,0-0.89159-0.675-0.89159-1.5zm65.25,0.81067c0.9625-0.25153,1.75-1.0993,1.75-1.884,0-0.78467,0.45-1.4267,1-1.4267s1,0.62686,1,1.393c0,1.4204-2.2255,2.7001-4.3318,2.491-0.64251-0.0638-0.38071-0.3218,0.58179-0.57332zm-48.248-1.811c0-0.825,0.6375-1.5,1.4167-1.5,0.77917,0,1.6176-0.5625,1.8631-1.25,0.25967-0.72707,0.81746-0.87897,1.3333-0.3631,0.51587,0.51587,0.36397,1.0737-0.3631,1.3333-0.6875,0.24554-1.25,1.0839-1.25,1.8631,0,0.77917-0.675,1.4167-1.5,1.4167s-1.5-0.675-1.5-1.5zm9,0.5c0-0.55,0.45-1,1-1s1,0.45,1,1-0.45,1-1,1-1-0.45-1-1zm-17.389-2.4273c0.70939-1.8486,3.7522-2.1613,3.14-0.32265-0.22891,0.6875-1.1648,1.3952-2.0798,1.5726-1.1601,0.225-1.481-0.15332-1.0601-1.25zm-41.611-3.5726c0-0.55,0.675-1,1.5-1s1.5,0.45,1.5,1-0.675,1-1.5,1-1.5-0.45-1.5-1zm36,0c0-0.55,0.45-1,1-1s1,0.45,1,1-0.45,1-1,1-1-0.45-1-1zm22,0c0-0.55,1.35-1,3-1s3,0.45,3,1-1.35,1-3,1-3-0.45-3-1zm10,0c0-0.55,1.35-1,3-1s3,0.45,3,1-1.35,1-3,1-3-0.45-3-1zm14,0c0-0.55,0.45-1,1-1s1,0.45,1,1-0.45,1-1,1-1-0.45-1-1zm5,0c0-0.55,0.675-1,1.5-1s1.5,0.45,1.5,1-0.675,1-1.5,1-1.5-0.45-1.5-1z"/>
 <path id="path3009" fill="#34a5e2" d="m1.0007,16.111c0-0.5168,1.6527-1.0793,3.6727-1.25,4.3862-0.37,5.6222-2.527,1.7137-2.988-2.9096-0.343-4.6399-2.8219-1.9698-2.8219,0.87083,0,1.5833-0.675,1.5833-1.5,0-1.9923-0.98667-1.8964-2.5724,0.25-0.9848,1.3329-1.5742,1.4729-2.4731,0.5871-1.3306-1.3111-0.4202-3.4663,1.371-3.2452,2.332,0.28789,3.6746-0.11108,3.6746-1.092,0-0.55-1.125-1-2.5-1-1.5556,0-2.5-0.56667-2.5-1.5,0-1.8131,2.5985-2.0032,3.4167-0.25,0.46667,1,0.7,1,1.1667,0,0.86793-1.8598,8.0629-1.5333,10.405,0.47224,1.1063,0.94723,2.0114,2.7472,2.0114,4,0,1.358,0.6057,2.2778,1.5,2.2778,0.825,0,1.5-0.45,1.5-1s0.45-1,1-1,1,0.675,1,1.5-0.45,1.5-1,1.5-1,0.675-1,1.5-0.675,1.5-1.5,1.5-1.5,0.45-1.5,1c0,1.985,4.1493,0.94191,6.5477-1.646,1.3487-1.4553,2.4523-2.1162,2.4523-1.4686,0,0.64757-0.675,1.4364-1.5,1.753-2.3585,0.90504-1.7535,2.3616,0.98095,2.3616,1.8124,0,2.65-0.67373,3.1084-2.5,0.3451-1.375,1.2537-2.5,2.0191-2.5,1.8588,0,1.7802,1.9136-0.10841,2.6384-3.6019,1.3822-0.90618,2.3616,6.5,2.3616,6.4444,0,8,0.29167,8,1.5,0,1.8163-1.6351,1.9912-2.3377,0.25-0.40351-1-0.52018-1-0.58333,0-0.09705,1.5367-42.079,1.8463-42.079,0.31036zm10.729-10.664c-0.332-0.3323-1.195-0.3678-1.916-0.079-0.79773,0.31923-0.56078,0.55618,0.60417,0.60417,1.0542,0.043421,1.6448-0.19293,1.3125-0.52522zm35.271,10.604c0-0.55,0.45-1,1-1s1,0.45,1,1-0.45,1-1,1-1-0.45-1-1zm2.7543-0.25c-0.68835-1.8718,0.22772-3.75,1.829-3.75,0.77917,0,1.4167-0.675,1.4167-1.5s0.45-1.5,1-1.5,1,1.125,1,2.5c0,2.3922,0.2619,2.5,6.0714,2.5,4.0635,0,6.5675-0.49608,7.5714-1.5,0.825-0.825,1.9179-1.5,2.4286-1.5,0.51071,0,0.92857,0.675,0.92857,1.5,0,1.1795,1.3889,1.5,6.5,1.5,3.575,0,6.5-0.40186,6.5-0.89301,0-0.49116,0.65208-1.1432,1.4491-1.4491,0.96852-0.37166,1.2647-0.07551,0.89301,0.89301-0.37716,0.98287,0.1218,1.4491,1.5509,1.4491,1.1588,0,2.107-0.45,2.107-1s0.675-1,1.5-1,1.5,0.45,1.5,1c0,1.4522,5.7264,1.2291,6.4167-0.25,0.46666-1,0.7-1,1.1667,0,0.75758,1.6234,6.0758,1.6234,6.8333,0,0.46666-1,0.7-1,1.1667,0,0.69189,1.4826,4.4167,1.6935,4.4167,0.25,0-0.55,0.45-1,1-1s1,0.675,1,1.5c0,0.99048-0.99074,1.5-2.9167,1.5-1.6042,0-3.1792,0.5625-3.5,1.25-0.46666,1-0.7,1-1.1667,0-0.69189-1.4826-4.4167-1.6935-4.4167-0.25,0,1.5326-15.715,1.2921-16.338-0.25-0.40351-1-0.52018-1-0.58333,0-0.09306,1.4734-3.0789,1.7159-3.0789,0.25,0-0.55-0.675-1-1.5-1s-1.5,0.45-1.5,1-1.35,1-3,1-3-0.45-3-1-0.675-1-1.5-1-1.5,0.45-1.5,1c0,1.4468-3.74,1.2313-4.3377-0.25-0.40351-1-0.52018-1-0.58333,0-0.11135,1.7631-16.676,1.7631-17.325,0zm69.246-0.25c0-1.57,1.7383-1.9214,4.4182-0.89301,2.6117,1.0022,1.7875,2.393-1.4182,2.393-2,0-3-0.5-3-1.5zm10,0.5c0-0.55,0.39148-1,0.86995-1s1.1007-2.0472,1.3827-4.5494c0.56484-5.0112,1.0843-5.9784,2.6808-4.9917,1.1479,0.70942,1.455,7.3653,0.45954,9.9593-0.65728,1.7128-5.393,2.2237-5.393,0.58179zm-128.32-3.387c-0.37333-0.97288,0.042458-1.2365,1.393-0.88337,2.2142,0.57902,2.6106,2.2702,0.53217,2.2702-0.76616,0-1.6325-0.62407-1.9252-1.3868zm55.318-2.613c0-0.55,0.45-1,1-1s1-0.75,1-1.6667c0-0.91667,0.26609-1.4006,0.59131-1.0754,0.83422,0.83422-0.53268,4.742-1.6587,4.742-0.51294,0-0.93261-0.45-0.93261-1zm19.079-0.58333c0.04798-1.1649,0.28494-1.4019,0.60417-0.60417,0.28887,0.72187,0.25334,1.5844-0.07895,1.9167-0.33229,0.33229-0.56864-0.25833-0.52522-1.3125zm47.921,0.58333c0-0.55,0.45-1,1-1s1,0.45,1,1-0.45,1-1,1-1-0.45-1-1zm-87.919-2.7499c-0.05304-1.5116,0.49533-2.245,1.6711-2.2347,1.0794,0.00945,1.3285,0.29683,0.64994,0.75-0.60503,0.40408-1.357,1.4097-1.6711,2.2347-0.38154,1.0023-0.59719,0.75344-0.64994-0.75zm16.921-2.8437c0-0.77351,0.9-1.4064,2-1.4064s2,0.39752,2,0.88337-0.9,1.1187-2,1.4064c-1.2999,0.33992-2,0.030682-2-0.88337zm-5-0.40638c0-0.55,0.675-1,1.5-1s1.5,0.45,1.5,1-0.675,1-1.5,1-1.5-0.45-1.5-1zm58,0c0-0.55,0.45-1,1-1s1,0.45,1,1-0.45,1-1,1-1-0.45-1-1z"/>
 <path id="path3007" fill="#289cda" d="m8.3926,14.624c0.451-1.796,0.155-2.545-1.141-2.883-1.6669-0.436-1.6669-0.464-0.001-0.574,0.9625-0.0638,1.75-0.791,1.75-1.616s0.675-1.5,1.5-1.5,1.5-0.675,1.5-1.5-0.70714-1.5-1.5714-1.5c-0.86428,0-2.2464-0.675-3.0714-1.5-1.3333-1.3333-1.2143-1.5,1.0714-1.5,1.4143,0,2.5714-0.45,2.5714-1,0-1.5722,2.7218-1.1674,3.3616,0.5,0.31658,0.825,1.2647,1.5,2.107,1.5,0.84226,0,1.5314,0.45,1.5314,1s-0.9,1-2,1-2,0.62686-2,1.393c0,0.76616-0.675,1.652-1.5,1.9686-2.2234,0.85321-1.8181,2.438,0.75,2.9326l2.25,0.43337-2.25,0.13618c-3.2281,0.19538-2.7853,2.1274,0.5,2.1815,1.5125,0.02492,8.0375,0.08071,14.5,0.12396,9.2692,0.06204,11.75,0.36916,11.75,1.4547,0,1.8574-13.553,1.9759-14.417,0.12604-0.46667-1-0.7-1-1.1667,0-0.39559,0.8477-3.1661,1.25-8.6084,1.25-7.996,0-8.0229-0.0088-7.416-2.4266zm32.608,1.4939c0-1.126,3.9078-2.4929,4.742-1.6587,0.32522,0.32522-0.15869,0.59131-1.0754,0.59131-0.91667,0-1.6667,0.45-1.6667,1s-0.45,1-1,1-1-0.41968-1-0.93261zm10.197-0.62c-1.1396-1.2914-0.13612-1.4479,8-1.248,5.1167,0.12569,8.2906,0.38856,7.0531,0.58416s-2.25,0.77434-2.25,1.2861c0,1.4157-7.7575,1.1184-8.3377-0.31955-0.40351-1-0.52018-1-0.58333,0-0.10645,1.6855-2.2768,1.5163-3.882-0.30265zm24.441,0.05265c-0.43386-1.1306,0.17302-1.5,2.4644-1.5,2.7023,0,2.8734,0.16667,1.54,1.5-0.825,0.825-1.934,1.5-2.4644,1.5-0.53044,0-1.2235-0.675-1.54-1.5zm18.362,0.56955c0-0.51175-1.0125-1.1255-2.25-1.3638-1.6271-0.31339-1.3503-0.47107,1-0.56955,2.2827-0.09565,3.25,0.31024,3.25,1.3638,0,0.825-0.45,1.5-1,1.5s-1-0.4187-1-0.93045zm3,0.03744c0-1.0944,2.4767-2.107,5.1532-2.107,1.7686,0,1.823,0.16667,0.48964,1.5-1.626,1.626-5.6429,2.0581-5.6429,0.60699zm-12.188-1.7901c0.72188-0.28887,1.5844-0.25334,1.9167,0.07895,0.33229,0.33229-0.25833,0.56864-1.3125,0.52522-1.1649-0.04798-1.4019-0.28494-0.60417-0.60417zm23,0c0.72187-0.28887,1.5844-0.25334,1.9167,0.07895,0.33229,0.33229-0.25834,0.56864-1.3125,0.52522-1.165-0.04798-1.4019-0.28494-0.60417-0.60417zm6,0c0.72187-0.28887,1.5844-0.25334,1.9167,0.07895,0.33229,0.33229-0.25834,0.56864-1.3125,0.52522-1.165-0.04798-1.4019-0.28494-0.60417-0.60417zm17.968-1.4769c-0.75618-2.2685,0.46922-6.84,1.8335-6.84,0.95092,0,1.3865,1.2566,1.3865,4,0,2.7843-0.43056,4-1.4167,4-0.77916,0-1.5907-0.52199-1.8033-1.16zm-116.78-5.2566c0-0.87083,0.7125-1.5833,1.5833-1.5833,1.7659,0,1.4584,2.1528-0.39583,2.7708-0.65312,0.21771-1.1875-0.31667-1.1875-1.1875zm-14-6.0833c0-0.825,0.45-1.5,1-1.5s1,0.675,1,1.5-0.45,1.5-1,1.5-1-0.675-1-1.5z"/>
</svg>
