<?xml version="1.0" encoding="UTF-8" standalone="no"?>
<!-- Created with Inkscape (http://www.inkscape.org/) -->
<svg id="svg2" xmlns:rdf="http://www.w3.org/1999/02/22-rdf-syntax-ns#" xmlns="http://www.w3.org/2000/svg" height="34.975" width="108.26" version="1.1" xmlns:cc="http://creativecommons.org/ns#" xmlns:dc="http://purl.org/dc/elements/1.1/">
 <metadata id="metadata8">
  <rdf:RDF>
   <cc:Work rdf:about="">
    <dc:format>image/svg+xml</dc:format>
    <dc:type rdf:resource="http://purl.org/dc/dcmitype/StillImage"/>
    <dc:title/>
   </cc:Work>
  </rdf:RDF>
 </metadata>
 <g id="g3013" transform="matrix(-1,0,0,1,108.74185,-0.09736979)">
  <path id="path3001" fill="#9acfed" d="m39.74,28.583c0-4.1977-0.43227-6.5911-1.25-6.9211-1-0.40351-1-0.52018,0-0.58333,1.818-0.115,1.667-10.805-0.179-12.65-1.612-1.6124-9.571-1.9688-9.571-0.4286,0,0.55-0.675,1-1.5,1s-1.5-0.45-1.5-1-1.8-1-4-1c-2.525,0-4.006,0.4609-4.016,1.25-0.01,0.8475-0.357,0.7669-1.076-0.25-0.798-1.1288-1.186-1.1907-1.568-0.25-0.601,1.4813-4.34,1.6967-4.34,0.25,0-0.55-1.575-1-3.5-1s-3.5,0.45-3.5,1-0.675,1-1.5,1c-2.2845,0-2.0612-7.5665,0.25-8.4707,1.8438-0.72133,89.849-0.47357,92,0.259,1.81,0.6165,1.656,8.2117-0.167,8.2117-0.779,0-1.596-0.5384-1.815-1.1964-0.519-1.5563-9.945-1.1234-10.98,0.5042-0.575,0.9056-0.761,0.8917-0.773-0.0578-0.01995-1.6286-4.6959-1.6286-5.353,0-0.40351,1-0.52018,1-0.58333,0-0.097-1.5243-11.079-1.7722-11.079-0.25,0,0.55-1.125,1-2.5,1-2.2963,0-2.5,0.36667-2.5,4.5,0,3.2157,0.40432,4.5,1.4167,4.5,0.77917,0,1.5667,0.38038,1.75,0.84529,0.18333,0.46491,1.5807,1.151,3.1053,1.5246,2.0163,0.4941,2.9314,0.26366,3.357-0.84529,0.64177-1.6724,5.3711-2.1343,5.3711-0.52456,0,0.55,1.35,1,3,1s3-0.45,3-1c0-0.57143,3-1,7-1s7,0.42857,7,1c0,0.57778,3.1667,1,7.5,1h7.5v15h-69v-6.4167z"/>
  <path id="path2999" fill="#76c2ea" d="m41.74,31.083c0-2.1977-0.54862-4.138-1.25-4.4211-1-0.40351-1-0.52018,0-0.58333,1.423-0.09,1.743-4.079,0.327-4.079-0.532,0-0.683-3.175-0.356-7.5l0.567-7.5-5.894-0.1625c-3.242-0.0897-11.857-0.1793-19.144-0.1994-10.192-0.028-13.25-0.3368-13.25-1.3375,0-0.7155-0.45-1.301-1-1.301s-0.99997-0.6169-0.99997-1.3708c0-2.2337,8.6629-2.5871,51.8-2.1134,41.935,0.46052,43.201,0.59709,43.199,4.6628,0,1.0488-3.919,1.3214-18.997,1.3214-14.529,0-18.997,0.294-18.999,1.25-0.0017,0.6875-0.56556,1.2569-1.2531,1.2653-0.93483,0.011452-0.9534,0.20396-0.07365,0.7635,0.64699,0.4115,1.3678,2.6629,1.6019,5.0032,0.23403,2.3403,0.75729,4.5842,1.1628,4.9865,1.2398,1.23,25.945,0.21752,26.799-1.0983,0.55773-0.85909,1.0069-0.78586,1.6896,0.27547,0.70991,1.1036,3.3126,1.4457,11,1.4457h10.07v14.609h-67v-3.9167zm43-0.08333c0-0.55-0.45-1-1-1s-1,0.45-1,1,0.45,1,1,1,1-0.45,1-1zm-16.658-6.449c0.37166-0.96852,0.07551-1.2647-0.89301-0.89301-0.79699,0.30583-1.4491,0.95792-1.4491,1.4491,0,1.4376,1.7351,1.0257,2.3421-0.55606z"/>
  <path id="path2997" fill="#6bbae5" d="m41.74,28.5c0-3.575-0.33978-6.5-0.75506-6.5-0.41529,0-0.60696-3.4875-0.42595-7.75l0.329-7.75-10.221-0.1779c-7.1695-0.12479-10.498-0.57256-11.15-1.5-0.729-1.0371-1.039-1.0526-1.437-0.0721-0.745,1.8361-14.046,1.6869-15.912-0.1786-2.5793-2.5793-1.555-3.5685,3.8214-3.6906,2.8875-0.065584,23.647-0.038105,46.132,0.061064,33.064,0.14582,41.144,0.44184,42.25,1.5478,2.627,2.627,1.462,3.5104-4.632,3.5104-3.3333,0-6-0.44444-6-1,0-0.55-0.675-1-1.5-1s-1.5,0.67689-1.5,1.5042c0,1.2782-1.8784,1.4494-12.5,1.1395-10.94-0.3191-12.515-0.1636-12.619,1.2458-0.20628,2.8038,0.28215,4.5868,1.4684,5.3605,0.82539,0.53827,0.7266,1.028-0.34995,1.7347-0.825,0.54158-1.0097,0.99158-0.41052,1,0.59922,0.0084,1.6021,1.1403,2.2286,2.5153,0.97054,2.1301,1.8081,2.5,5.6605,2.5,2.4868,0,4.5214,0.45,4.5214,1s-0.675,1-1.5,1-1.5,0.675-1.5,1.5,0.45,1.5,1,1.5,1-0.45,1-1,1.6875-1.0613,3.75-1.1362c2.3214-0.0843,2.8928-0.30128,1.5-0.56955-1.2375-0.23835-2.25-1.1017-2.25-1.9186,0-1.2776,2.5511-1.4155,18.25-0.98638,10.038,0.27438,18.588,0.52404,19,0.5548,1.1419,0.08516,0.8954,6.0559-0.25,6.0559-0.55,0-1,0.675-1,1.5s0.45,1.5,1,1.5,1,1.125,1,2.5v2.5h-67v-6.5zm43.901,1.5987c1.0457-1.0457,2.1666-2.9582,2.4908-4.25,0.32422-1.2918,0.33114-1.7862,0.01539-1.0987-0.31576,0.6875-1.2116,1.25-1.9908,1.25-0.77917,0-1.4167,0.9-1.4167,2s-0.45,2-1,2-1,0.45-1,1c0,1.4701,0.76868,1.2313,2.9013-0.90128zm8.099-1.599c0-0.825-0.45-1.5-1-1.5s-1,0.675-1,1.5,0.45,1.5,1,1.5,1-0.675,1-1.5zm5.7292-5.1042c-0.33229-0.33229-1.1948-0.36782-1.9167-0.07895-0.79773,0.31923-0.56078,0.55618,0.60417,0.60417,1.0542,0.04342,1.6448-0.19293,1.3125-0.52522zm6,0c-0.3323-0.33229-1.1948-0.36782-1.9167-0.07895-0.79773,0.31923-0.56078,0.55618,0.60417,0.60417,1.0542,0.04342,1.6448-0.19293,1.3125-0.52522z"/>
  <path id="path2995" fill="#4fb0e4" d="m41.855,28.75c-0.101-3.438-0.506-6.361-0.9-6.497-0.393-0.136-0.567-3.624-0.386-7.75,0.248-5.663,0.677-7.503,1.75-7.503,0.78155,0,1.421,0.45,1.421,1s0.45,1,1,1,1-0.65066,1-1.4459c0-1.1642-1.7921-1.4251-9.1963-1.339-6.178,0.0719-9.324-0.2742-9.584-1.0541-0.473-1.4181-3.22-1.5555-3.22-0.161,0,0.55-0.675,1-1.5,1s-1.5-0.45-1.5-1-0.675-1-1.5-1-1.5,0.45-1.5,1c0,0.57778-3.1667,1-7.5,1-5.8039,0-7.5-0.32037-7.5-1.4167,0-0.77917-0.5625-1.6176-1.25-1.8631-4.4689-1.5959,5.1412-2.0112,42.49-1.8364,25.891,0.12115,42.389,0.56935,42.593,1.157,0.442,1.2728,3.167,1.2378,3.167-0.0408,0-0.55,0.9-1,2-1,1.1111,0,2,0.66667,2,1.5,0,0.825,0.45,1.5,1,1.5s1,0.45,1,1c0,0.55556-2.6667,1-6,1s-6-0.44444-6-1c0-1.4443-2.7558-1.2323-3.2503,0.25-0.307,0.9177-3.632,1.2164-12.506,1.1235-14.136-0.148-13.574-0.6448-12.326,10.876,0.04468,0.4125,0.53124,0.75,1.0812,0.75,1.2969,0,5,3.7031,5,5,0,0.55,0.675,1,1.5,1,1.8394,0,2.0553,4.6093,0.25,5.3377-0.94006,0.37932-0.91685,0.52396,0.09362,0.58333,0.73899,0.04342,1.5922-0.8715,1.8959-2.0331,0.47416-1.8132,1.0978-2.0389,4.4064-1.5952,2.8012,0.37572,3.8541,0.1532,3.8541-0.81458,0-0.73234,0.7875-1.5373,1.75-1.7888,1.6667-0.43555,1.6667-0.46285,0-0.57332-0.9625-0.0638-1.75-0.50468-1.75-0.97974,0-1.0726,16.574-2.002,24.29-1.3621,6.1554,0.51045,7.9177,2.2258,2.2868,2.2258-2.4701,0-4.2583,0.83521-6.4231,3-3.6555,3.6555-5.1538,3.8009-5.1538,0.5,0-2.3946,1.471-3.4799,2.1667-1.5985,0.18333,0.49581,0.91358,0.27081,1.6228-0.5,1.079-1.177,0.81-1.402-1.682-1.402-3.157,0-6.1109,2.2097-6.1109,4.5714,0,0.78571-0.45,1.4286-1,1.4286s-1,0.675-1,1.5,0.675,1.5,1.5,1.5,1.5-0.675,1.5-1.5,0.675-1.5,1.5-1.5,1.5,0.675,1.5,1.5,0.48214,1.5,1.0714,1.5c1.3845,0,3.9286-2.5441,3.9286-3.9286,0-0.58929,0.68912-1.0714,1.5314-1.0714,0.84226,0,1.7904-0.675,2.107-1.5,0.69333-1.8068,5.3552-2.0235,5.3769-0.25,0.0102,0.83588,0.34154,0.75305,1-0.25,0.87528-1.3333,1.0941-1.3333,1.9694,0,0.65846,1.0031,0.98976,1.0859,1,0.25,0.008-0.6875,0.46531-1.25,1.0153-1.25,0.55,0,1,0.675,1,1.5,0,0.93333-0.94444,1.5-2.5,1.5-1.375,0-2.5,0.45-2.5,1s0.45,1,1,1,1,0.675,1,1.5,0.675,1.5,1.5,1.5,1.5,0.675,1.5,1.5c0,1.3033-4.3723,1.5-33.35,1.5h-33.351l-0.184-6.25zm28.885,2.25c0-0.55-0.45-1-1-1s-1,0.45-1,1,0.45,1,1,1,1-0.45,1-1zm6,0c0-0.55-0.675-1-1.5-1s-1.5,0.45-1.5,1,0.675,1,1.5,1,1.5-0.45,1.5-1zm5-0.5c0-0.843-0.89327-1.5-2.0394-1.5-1.7106,0-1.8315,0.23575-0.75,1.462,1.6771,1.9015,2.7894,1.9167,2.7894,0.03804zm18.342,0.05093c0.37166-0.96852,0.0755-1.2647-0.89301-0.89301-0.79699,0.30583-1.4491,0.95792-1.4491,1.4491,0,1.4376,1.7351,1.0257,2.3421-0.55606zm-47.676-23.801c-0.277-0.6875-0.504-0.125-0.504,1.25s0.22697,1.9375,0.50439,1.25c0.27741-0.6875,0.27741-1.8125,0-2.5zm12.338,15.25c0-0.55,0.9-1,2-1s2,0.45,2,1-0.9,1-2,1-2-0.45-2-1zm41,0c0-0.55,0.675-1,1.5-1s1.5,0.45,1.5,1-0.675,1-1.5,1-1.5-0.45-1.5-1z"/>
  <path id="path2993" fill="#48a8dc" d="m41.74,34.057c0-0.51838,1.8775-1.0809,4.1723-1.25,2.3753-0.17506,4.2811-0.85664,4.425-1.5825,0.139-0.70125,0.02397-0.81375-0.25561-0.25-0.279,0.565-2.244,1.026-4.366,1.026h-3.8581l0.37226-5c0.25224-3.388-0.0084-4.9993-0.80855-4.9979-0.8212,0.0015-1.0787-1.9781-0.84548-6.5,0.315-6.115,0.479-6.502,2.75-6.502,1.4797,0,2.4147-0.5808,2.4147-1.5,0-0.825-0.6375-1.5-1.4167-1.5-0.77917,0-1.6792-0.5625-2-1.25-0.46667-1-0.7-1-1.1667,0-0.71352,1.529-14.417,1.7666-14.417,0.25,0-1.4869-9.7312-1.2516-10.341,0.25-0.38,0.9407-0.769,0.8788-1.567-0.25-0.719-1.0169-1.066-1.0975-1.076-0.25-0.01,0.8276-1.669,1.25-4.9083,1.25-4.7061,0-6.107-0.9363-6.107-4.0818,0-0.54304,17.161-0.91821,42-0.91821,27.333,0,42,0.34921,42,1,0,0.55,0.675,1,1.5,1s1.5-0.45,1.5-1,0.9-1,2-1c2.1888,0,2.5652,1.6574,0.90856,4-0.79831,1.1288-1.1863,1.1907-1.568,0.25-0.616-1.5161-12.341-1.7536-12.341-0.25,0,0.55-0.675,1-1.5,1s-1.5-0.45-1.5-1-0.9-1-2-1-2,0.45-2,1c0,0.58333-3.3333,1-8,1-5.668,0-8.0357,0.36437-8.1224,1.25-0.83252,8.5002-0.57104,10.75,1.2494,10.75,1.0302,0,1.873,0.675,1.873,1.5s0.675,1.5,1.5,1.5,1.5,0.45,1.5,1-0.45,1-1,1-1,0.675-1,1.5,0.675,1.5,1.5,1.5,1.5-0.45,1.5-1,0.45-1,1-1,1,0.675,1,1.5-0.45,1.5-1,1.5-1,0.675-1,1.5-0.675,1.5-1.5,1.5-1.5,0.45-1.5,1,1.1164,1,2.4809,1c1.8124,0,2.65-0.67373,3.1084-2.5,0.3451-1.375,1.3025-2.5,2.1275-2.5,1.1007,0,1.333,0.66557,0.87254,2.5-0.46041,1.8344-0.22812,2.5,0.87254,2.5,0.825,0,1.7824-1.125,2.1275-2.5s1.0287-2.5,1.5191-2.5c0.49038,0,0.89159-0.642,0.89159-1.4267,0-0.78467,0.7875-1.6325,1.75-1.884,1.6667-0.43555,1.6667-0.46285,0-0.57332-3.03-0.201-1.899-2.116,1.249-2.116,2.8333,0,3,0.22222,3,4,0,2.2-0.45,4-1,4s-1-0.4456-1-0.99021c0-0.54462-0.9-0.21961-2,0.72224-3.107,2.66-2.441,3.268,3.579,3.268,5.3005,0,5.8096-0.23068,10.2-4.6214l4.6214-4.6214-6.2004,0.71963c-5.3143,0.61679-6.2004,0.49123-6.2004-0.87856,0-1.2143,1.141-1.6421,4.75-1.7811,5.7514-0.22144,10.48,0.07949,11.107,0.7069,0.637,0.636-6.506,7.475-7.808,7.475-0.57726,0-1.0496,0.675-1.0496,1.5s0.675,1.5,1.5,1.5,1.5-0.45,1.5-1,0.675-1,1.5-1,1.5-0.675,1.5-1.5,0.45-1.5,1-1.5,1,1.125,1,2.5c0,1.8333,0.53333,2.5,2,2.5,1.1,0,2-0.45,2-1s0.675-1,1.5-1,1.5,0.45,1.5,1,1.125,1,2.5,1c1.5556,0,2.5,0.56667,2.5,1.5,0,1.2145-1.6018,1.5-8.4167,1.5-5.7977,0-8.5736-0.38896-8.9211-1.25-0.40351-1-0.52018-1-0.58333,0-0.09743,1.5427-49.079,1.8495-49.079,0.3075zm11-26.057c0-1.2682-0.64035-1.9711-1.75-1.9211-1.0454,0.047163-1.2467,0.28202-0.5,0.58333,0.6875,0.27741,1.25,1.1419,1.25,1.9211,0,0.77917,0.225,1.4167,0.5,1.4167s0.5-0.9,0.5-2zm45,20.5c0-0.825,0.45-1.5,1-1.5s1-0.75,1-1.6667c0-0.91667,0.2469-1.4198,0.54866-1.118,0.81,0.809-0.618,5.785-1.659,5.785-0.49,0-0.891-0.675-0.891-1.5zm8.6384-3c0.31659-0.825,0.97746-1.5,1.4686-1.5,0.49115,0,0.89301,0.675,0.89301,1.5s-0.66088,1.5-1.4686,1.5c-0.89459,0-1.2436-0.58629-0.89301-1.5zm-41.642-3.5c0-0.55,0.675-1,1.5-1s1.5,0.45,1.5,1-0.675,1-1.5,1-1.5-0.45-1.5-1zm36,0c0-0.55,0.45-1,1-1s1,0.45,1,1-0.45,1-1,1-1-0.45-1-1z"/>
  <path id="path2991" fill="#32a5e3" d="m42.74,34c0-0.55,0.675-1,1.5-1s1.5,0.45,1.5,1-0.675,1-1.5,1-1.5-0.45-1.5-1zm5,0.10699c0-0.49116,0.675-1.152,1.5-1.4686,2.4363-0.93488,1.7213-2.4309-1.5-3.1384-3.0841-0.67739-4.1777-2.5-1.5-2.5,0.825,0,1.5-0.675,1.5-1.5,0-1.9923-0.98667-1.8964-2.5724,0.25-0.98478,1.3329-1.5742,1.4729-2.4731,0.58713-1.4099-1.3892-0.27605-3.6745,1.4874-2.9978,0.68174,0.26161,1.8737,0.07418,2.6488-0.41651,0.972-0.615,0.247-0.896-2.341-0.907l-3.75-0.01531v-5.9809c0-5.5457,0.18194-6.0266,2.5-6.6084,2.634-0.6612,3.508-3.4106,1.083-3.4106-0.77917,0-1.6792-0.5625-2-1.25-0.46667-1-0.7-1-1.1667,0-0.703,1.5075-11.089,1.7319-11.583,0.2502-0.469-1.4067-18.167-1.4987-18.634-0.0969-0.201,0.6032-1.8553,1.0967-3.6756,1.0967-3.0733,0-4.5237-1.3087-4.5237-4.0818,0-0.54192,15.983-0.91821,39-0.91821,25.333,0,39,0.35043,39,1,0,0.55,2.025,1,4.5,1s4.5-0.45,4.5-1,0.9-1,2-1c2.1888,0,2.5652,1.6574,0.90856,4-0.79831,1.1288-1.1863,1.1907-1.568,0.25-0.361-0.8866-3.512-1.25-10.841-1.25-7.33,0-10.481,0.3634-10.841,1.25-0.381,0.9407-0.77,0.8788-1.568-0.25-0.719-1.0169-1.066-1.0975-1.076-0.25-0.009,0.7188-1.29,1.25-3.015,1.25-1.65,0-3-0.45-3-1s-0.675-1-1.5-1-1.5,0.45-1.5,1-1.35,1-3,1-3-0.45-3-1-0.45-1-1-1-1,1.125-1,2.5,0.45,2.5,1,2.5,1.0069,0.7875,1.0153,1.75c0.01311,1.4982,0.15701,1.5341,1,0.25,0.87528-1.3333,1.0941-1.3333,1.9694,0,1.4249,2.1706,1.236,3.9781-0.48469,4.6384-2.537,0.974-1.662,2.362,1.489,2.362,2.7129,0,3.0471,0.36844,3.6278,4,0.38578,2.4125,1.1842,4,2.0118,4,0.75471,0,1.3722-0.45,1.3722-1s0.45-1,1-1,1,0.675,1,1.5-0.45,1.5-1,1.5-1,0.675-1,1.5-0.675,1.5-1.5,1.5-1.5,0.45-1.5,1c0,1.5959,4.7265,1.1551,5.3616-0.5,0.31658-0.825,1.1522-1.4645,1.857-1.4211,1.0036,0.06184,1.0104,0.18828,0.03139,0.58333-2.144,0.865-1.369,2.338,1.231,2.338,1.8124,0,2.65-0.67373,3.1084-2.5,0.3451-1.375,1.2537-2.5,2.0191-2.5,1.8588,0,1.7802,1.9136-0.10841,2.6384-3.602,1.383-0.906,2.362,6.5,2.362,6.4444,0,8,0.29167,8,1.5,0,1.8163-1.6351,1.9912-2.3377,0.25-0.40351-1-0.52018-1-0.58333,0-0.06013,0.95211-4.4877,1.25-18.579,1.25-10.189,0-18.5-0.40118-18.5-0.89301zm5.7292-10.711c-0.33229-0.33229-1.1948-0.36782-1.9167-0.07895-0.79773,0.31923-0.56078,0.55618,0.60417,0.60417,1.0542,0.04342,1.6448-0.19293,1.3125-0.52522zm-7.729-6.396c0-0.55-0.45-1-1-1s-1,0.45-1,1,0.45,1,1,1,1-0.45,1-1zm43,17c0-0.55,0.45-1,1-1s1,0.45,1,1-0.45,1-1,1-1-0.45-1-1zm2.7543-0.25c-0.688-1.872,0.228-3.75,1.829-3.75,0.77917,0,1.4167-0.675,1.4167-1.5s0.45-1.5,1-1.5,1,1.125,1,2.5c0,2.3889,0.26667,2.5,6,2.5,4.6667,0,6,0.33333,6,1.5,0,1.2142-1.5992,1.5-8.393,1.5-5.8026,0-8.5349-0.3858-8.8527-1.25zm-49.072-3.137c-0.37333-0.97288,0.04246-1.2365,1.393-0.88337,2.214,0.579,2.61,2.27,0.532,2.27-0.766,0-1.633-0.624-1.925-1.387zm55.318-2.5062c0-0.49116,0.65208-1.1432,1.4491-1.4491,0.96852-0.37166,1.2647-0.07551,0.89301,0.89301-0.60697,1.5817-2.3421,1.9937-2.3421,0.55606zm-20.842-3.107c0-1.375,0.22697-1.9375,0.50439-1.25,0.27741,0.6875,0.27741,1.8125,0,2.5s-0.50439,0.125-0.50439-1.25zm16.842-3c0-0.55,0.9-1,2-1s2,0.45,2,1-0.9,1-2,1-2-0.45-2-1z"/>
  <path id="path2989" fill="#269bda" d="m50.307,32.59c0.45769-1.8236,0.1581-2.5054-1.2309-2.8014-1.0097-0.21521,0.41414-0.39972,3.1641-0.41001s3.9875,0.15665,2.75,0.37099c-3.1727,0.54951-2.8042,2.2415,0.5,2.2959,1.5125,0.02492,8.0375,0.08071,14.5,0.12396,9.2692,0.06204,11.75,0.36916,11.75,1.4547,0,0.98458-1.4224,1.376-5,1.376-2.75,0-5-0.45-5-1s-0.675-1-1.5-1-1.5069,0.5625-1.5153,1.25c-0.01038,0.84746-0.35693,0.76695-1.0761-0.25-0.79831-1.1288-1.1863-1.1907-1.568-0.25-0.34586,0.85238-3.0315,1.25-8.4429,1.25-7.8865,0-7.932-0.01494-7.3308-2.4101zm32.433,1.4775c0-1.126,3.9078-2.4929,4.742-1.6587,0.325,0.325-0.159,0.591-1.076,0.591-0.91667,0-1.6667,0.45-1.6667,1s-0.45,1-1,1-1-0.41968-1-0.93261zm10.182-0.63644c-1.1591-1.3126-0.25293-1.4645,7.5-1.257,4.8501,0.1298,8.0309,0.40175,7.0684,0.60434s-1.75,0.78535-1.75,1.295c0,0.50967-1.125,0.92668-2.5,0.92668s-2.5069-0.5625-2.5153-1.25c-0.0102-0.83588-0.34153-0.75305-1,0.25-0.87528,1.3333-1.0941,1.3333-1.9694,0-0.65846-1.0031-0.98976-1.0859-1-0.25-0.02077,1.6954-2.2161,1.5127-3.8337-0.31906zm-39.489-8.366c0.511-1.953-2.897-3.066-9.392-3.066-2.7439,0-3.3805-0.3575-3.1164-1.75,0.20016-1.0555,1.4199-1.8756,3.0733-2.0664,1.5078-0.17403,2.7414-0.73653,2.7414-1.25s0.675-0.93358,1.5-0.93358,1.5-0.675,1.5-1.5,0.4132-1.5,0.91821-1.5c0.50502,0,1.63-0.27314,2.5-0.60699,1.0091-0.38724,1.5818-0.06395,1.5818,0.89301,0,0.825-0.675,1.759-1.5,2.0756-2.444,0.938-1.709,2.638,1.14,2.638,1.4519,0,3.2376,0.7875,3.9682,1.75,1.8576,2.447,1.7074,3.25-0.60795,3.25-1.1,0-2,0.62686-2,1.393,0,0.76616-0.62407,1.6325-1.3868,1.9252-0.94689,0.36336-1.2388-0.03382-0.92023-1.2521zm-11.443-9.755c0.9625-0.25153,1.75-0.87433,1.75-1.384s-0.7875-0.9622-1.75-1.0056c-1.3949-0.06293-1.4456-0.19526-0.25-0.6521,0.825-0.31524,2.491-1.6297,3.7023-2.9211,2.15-2.2925,4.311-3.0986,4.284-1.5979-0.038,2.1171-1.336,5.25-2.174,5.25-0.52514,0-1.6298,0.675-2.4548,1.5s-2.2554,1.4478-3.1786,1.384c-1.4948-0.1033-1.4869-0.16608,0.07143-0.57332zm-10.25-10.312c0-0.55-1.4625-1.0061-3.25-1.0137-1.7875-0.00751-4.2625-0.28499-5.5-0.61663-4.0878-1.0955-2.3403-2.3697,3.25-2.3697,3.7252,0,5.5049,0.40337,5.5153,1.25,0.01,0.8475,0.357,0.7669,1.076-0.25,0.798-1.1288,1.187-1.1907,1.568-0.25,0.279,0.6875,1.107,1.25,1.841,1.25,0.73333,0,1.5958-0.5625,1.9167-1.25,0.46667-1,0.7-1,1.1667,0,0.75745,1.6231,3.4121,1.6231,3.432,0,0.01038-0.84746,0.35693-0.76695,1.0761,0.25,0.86995,1.2301,1.1589,1.2547,1.6057,0.13685,0.46006-1.1509,0.69365-1.1509,1.5,0,0.74136,1.0581,1.0686,1.0834,1.4623,0.11315,0.3759-0.9264,4.6277-1.25,16.424-1.25,13.481,0,15.917,0.22949,15.917,1.5,0,1.2846-2.9444,1.5-20.5,1.5-13,0-20.5,0.36585-20.5,1,0,0.55-1.8,1-4,1s-4-0.45-4-1zm-24-2.5c0-1.948,2.6141-1.948,3.3616,0,0.391,1.0203-0.055,1.5-1.3937,1.5-1.0832,0-1.9686-0.6746-1.9686-1.5zm82.812,0.81689c0.72188-0.28887,1.5844-0.25334,1.9167,0.078947,0.33229,0.33229-0.25833,0.56864-1.3125,0.52522-1.1649-0.047984-1.4019-0.28494-0.60417-0.60417zm-72.812-1.317c0-0.55,0.45-1,1-1s1,0.45,1,1-0.45,1-1,1-1-0.45-1-1z"/>
 </g>
</svg>
