<?xml version="1.0" encoding="UTF-8" standalone="no"?>
<!-- Created with Inkscape (http://www.inkscape.org/) -->
<svg id="svg2" xmlns:rdf="http://www.w3.org/1999/02/22-rdf-syntax-ns#" xmlns="http://www.w3.org/2000/svg" height="27.971" width="108.27" version="1.1" xmlns:cc="http://creativecommons.org/ns#" xmlns:dc="http://purl.org/dc/elements/1.1/">
 <metadata id="metadata8">
  <rdf:RDF>
   <cc:Work rdf:about="">
    <dc:format>image/svg+xml</dc:format>
    <dc:type rdf:resource="http://purl.org/dc/dcmitype/StillImage"/>
    <dc:title/>
   </cc:Work>
  </rdf:RDF>
 </metadata>
 <g id="g3019">
  <path id="path3001" fill="#9ad0ed" d="m69.005,21.486c0-4.1977,0.43227-6.5911,1.25-6.9211,1-0.40351,1-0.52018,0-0.58333-1.7017-0.10747-1.5821-3.8897,0.17857-5.6504,1.612-1.613,9.571-1.969,9.571-0.429,0,0.55,0.675,1,1.5,1s1.5-0.45,1.5-1,1.8-1,4-1,4,0.45,4,1,1.575,1,3.5,1,3.5-0.45,3.5-1,1.575-1,3.5-1,3.5,0.45,3.5,1,0.675,1,1.5,1c2.2845,0,2.0612-7.5665-0.25-8.4707-1.8438-0.7213-89.849-0.4735-92,0.259-1.81,0.6165-1.656,8.2117,0.167,8.2117,0.779,0,1.596-0.538,1.815-1.196,0.519-1.557,9.945-1.124,10.979,0.504,0.576,0.905,0.762,0.892,0.774-0.058,0.01995-1.6286,4.6959-1.6286,5.353,0,0.40351,1,0.52018,1,0.58333,0,0.096-1.519,10.079-1.767,10.079-0.25,0,0.55,1.35,1,3,1s3,0.45,3,1-0.675,1-1.5,1-1.5,0.45-1.5,1-1.575,1-3.5,1-3.5-0.45-3.5-1-1.125-1-2.5-1-2.5,0.45-2.5,1-1.35,1-3,1-3-0.45-3-1c0-0.57143-3-1-7-1s-7,0.42857-7,1c0,0.57778-3.1667,1-7.5,1h-7.5v15h69v-6.4167z"/>
  <path id="path2999" fill="#76c2ea" d="m67.005,23.986c0-2.1977,0.54862-4.138,1.25-4.4211,1-0.40351,1-0.52018,0-0.58333-1.473-0.093-1.717-4.079-0.25-4.079,0.55,0,1-1.758,1-3.907v-3.9075l5.75-0.38185c3.162-0.211,11.488-0.338,18.5-0.283,9.8944,0.076,12.75-0.195,12.75-1.211,0-0.721,0.45-1.31,1-1.31s1-0.617,1-1.3708c0-2.2337-8.6629-2.5871-51.801-2.1134-42.043,0.4617-43.199,0.5882-43.199,4.7262,0,1.054,1.7337,1.3826,7.25,1.374,3.9875-0.0062,12.312,0.07756,18.5,0.18617l11.25,0.198v2.8834c0,2.0779-0.58015,3.0351-2.0767,3.4264-3.4569,0.904-24.361-0.51445-25.173-1.7082-0.5201-0.76396-1.0351-0.65851-1.6799,0.344-0.70991,1.1036-3.3126,1.4457-11,1.4457h-10.07v14.609h67v-3.917zm-43-0.083c0-0.55,0.45-1,1-1s1,0.45,1,1-0.45,1-1,1-1-0.45-1-1zm16.658-6.449c-0.372-0.969-0.076-1.265,0.893-0.893,0.797,0.306,1.449,0.958,1.449,1.449,0,1.4376-1.7351,1.0257-2.3421-0.55606z"/>
  <path id="path2997" fill="#6bbae5" d="m67.005,21.403c0-3.575,0.373-6.5,0.828-6.5,0.45549,0,0.79299-1.8,0.75-4.0001-0.07-3.602,0.171-4.008,2.422-4.074,11.452-0.34,17.474-1.051,18.254-2.155,0.714-1.011,1.002-1.015,1.405-0.021,0.745,1.836,14.047,1.687,15.912-0.179,2.5793-2.5789,1.555-3.5681-3.8214-3.6902-2.8875-0.0656-23.647-0.0381-46.132,0.061-33.064,0.1458-41.145,0.4419-42.25,1.5478-2.628,2.6274-1.462,3.5104,4.632,3.5104,3.3333,0,6-0.44444,6-1,0-0.55,0.675-1,1.5-1s1.5,0.6581,1.5,1.4624c0,1.2078,1.9232,1.4255,11.046,1.25l11.045-0.212-0.295,3.5c-0.28861,3.4177-0.40719,3.5072-5.0456,3.8048-2.6125,0.16764-4.75,0.73014-4.75,1.25,0,0.52,0.675,0.945,1.5,0.945s1.5,0.675,1.5,1.5-0.45,1.5-1,1.5-1-0.45-1-1-1.6875-1.0613-3.75-1.1362c-2.3214-0.0843-2.8928-0.30128-1.5-0.56955,1.238-0.238,2.25-1.101,2.25-1.918,0-1.2776-2.5511-1.4155-18.25-0.98638-10.038,0.27438-18.588,0.52404-19,0.5548-1.14,0.084-0.9,6.055,0.25,6.055,0.55,0,1,0.675,1,1.5s-0.45,1.5-1,1.5-1,1.125-1,2.5v2.5h67v-6.5zm-43.901,1.5987c-1.0457-1.0457-2.1666-2.9582-2.4908-4.25-0.324-1.292-0.331-1.787-0.015-1.099,0.315,0.688,1.211,1.25,1.99,1.25s1.417,0.9,1.417,2,0.45,2,1,2,1,0.45,1,1c0,1.4701-0.76868,1.2313-2.9013-0.90128zm-8.099-1.599c0-0.825,0.45-1.5,1-1.5s1,0.675,1,1.5-0.45,1.5-1,1.5-1-0.675-1-1.5zm-5.7292-5.1042c0.33229-0.33229,1.1948-0.36782,1.9167-0.07895,0.79773,0.31923,0.56078,0.55618-0.60417,0.60417-1.0542,0.04342-1.6448-0.19293-1.3125-0.52522zm-6,0c0.3323-0.33229,1.1948-0.36782,1.9167-0.07895,0.79773,0.31923,0.56078,0.55618-0.60417,0.60417-1.0542,0.04342-1.6448-0.19293-1.3125-0.52522z"/>
  <path id="path2995" fill="#4fb0e4" d="m66.892,21.689c0.10255-3.4175,0.5074-6.455,0.89968-6.75,0.392-0.295,0.713-2.322,0.713-4.504v-3.9679l6.489-0.24868c3.569-0.137,6.644-0.714,6.833-1.282,0.442-1.326,3.178-1.354,3.178-0.033,0,0.55,0.675,1,1.5,1s1.5-0.45,1.5-1,0.675-1,1.5-1,1.5,0.45,1.5,1c0,0.578,3.167,1,7.5,1,5.8039,0,7.5-0.32,7.5-1.417,0-0.779,0.5625-1.6172,1.25-1.8628,4.4686-1.5959-5.1415-2.0112-42.49-1.8364-25.891,0.1211-42.389,0.5693-42.593,1.157-0.443,1.2732-3.167,1.2382-3.167-0.0408,0-0.55-0.9-1-2-1-1.1111,0-2,0.66667-2,1.5,0,0.825-0.45,1.5-1,1.5s-1,0.45-1,1c0,0.55556,2.6667,1,6,1s6-0.44444,6-1c0-1.4439,2.7558-1.2325,3.2497,0.24924,0.30138,0.90414,3.4447,1.228,11.379,1.1725l10.962-0.07676-0.20965,3.0283c-0.11531,1.6655-0.92322,3.55-1.7954,4.1878-0.872,0.638-1.586,1.672-1.586,2.299s-0.675,1.14-1.5,1.14c-1.8394,0-2.0553,4.6093-0.25,5.3377,0.94006,0.37932,0.91685,0.52396-0.09362,0.58333-0.73899,0.04342-1.5922-0.8715-1.8959-2.0331-0.47416-1.8132-1.0978-2.0389-4.4064-1.5952-2.801,0.375-3.854,0.153-3.854-0.815,0-0.73234-0.7875-1.5373-1.75-1.7888-1.6667-0.43555-1.6667-0.46285,0-0.57332,0.962-0.064,1.75-0.505,1.75-0.98,0-1.072-16.574-2.002-24.29-1.362-6.16,0.511-7.92,2.226-2.287,2.226,2.47,0,4.258,0.835,6.423,3,3.656,3.656,5.154,3.801,5.154,0.5,0-2.3946-1.471-3.4799-2.1667-1.5985-0.18333,0.49581-0.91358,0.27081-1.6228-0.5-1.082-1.177-0.813-1.402,1.679-1.402,3.157,0,6.111,2.21,6.111,4.571,0,0.786,0.45,1.429,1,1.429s1,0.675,1,1.5-0.675,1.5-1.5,1.5-1.5-0.675-1.5-1.5-0.675-1.5-1.5-1.5-1.5,0.675-1.5,1.5-0.48214,1.5-1.0714,1.5c-1.385,0-3.929-2.544-3.929-3.929,0-0.589-0.689-1.071-1.531-1.071-0.84226,0-1.7904-0.675-2.107-1.5-0.69333-1.8068-5.3552-2.0235-5.3769-0.25-0.0102,0.83588-0.34154,0.75305-1-0.25-0.87528-1.3333-1.0941-1.3333-1.9694,0-0.65846,1.0031-0.98976,1.0859-1,0.25-0.01-0.688-0.47-1.25-1.02-1.25s-1,0.675-1,1.5c0,0.93333,0.94444,1.5,2.5,1.5,1.375,0,2.5,0.45,2.5,1s-0.45,1-1,1-1,0.675-1,1.5-0.675,1.5-1.5,1.5-1.5,0.675-1.5,1.5c0,1.3033,4.3723,1.5,33.35,1.5h33.351l0.186-6.214zm-28.887,2.214c0-0.55,0.45-1,1-1s1,0.45,1,1-0.45,1-1,1-1-0.45-1-1zm-6,0c0-0.55,0.675-1,1.5-1s1.5,0.45,1.5,1-0.675,1-1.5,1-1.5-0.45-1.5-1zm-5-0.5c0-0.843,0.893-1.5,2.039-1.5,1.7106,0,1.8315,0.23575,0.75,1.462-1.677,1.901-2.789,1.917-2.789,0.038zm-18.342,0.05093c-0.372-0.969-0.076-1.265,0.893-0.893,0.797,0.306,1.449,0.958,1.449,1.449,0,1.4376-1.7351,1.0257-2.3421-0.55606zm35.342-8.551c0-0.55-0.9-1-2-1s-2,0.45-2,1,0.9,1,2,1,2-0.45,2-1zm-41,0c0-0.55-0.675-1-1.5-1s-1.5,0.45-1.5,1,0.675,1,1.5,1,1.5-0.45,1.5-1z"/>
  <path id="path2993" fill="#32a5e3" d="m66.005,26.963c0-0.5168-1.6527-1.0793-3.6727-1.25-2.2199-0.18759-3.8323-0.90373-4.0761-1.8104-0.32506-1.2086-0.21941-1.2376,0.54385-0.14946,0.77608,1.1065,1.332,1.0211,3.0761-0.47224,2.497-2.139,2.728-3.379,0.629-3.379-0.825,0-1.5-0.675-1.5-1.5,0-1.9923,0.98667-1.8964,2.5724,0.25,0.98478,1.3329,1.5742,1.4729,2.4731,0.58713,1.4099-1.3892,0.27605-3.6745-1.4874-2.9978-0.68174,0.26161-1.8737,0.07418-2.6488-0.41651-0.97276-0.61581-0.2477-0.89691,2.3407-0.90748l3.75-0.015v-9h7c4,0,7-0.42857,7-1,0-1.5126,12.722-1.2742,13.341,0.25,0.38169,0.94068,0.76971,0.87881,1.568-0.25,0.7192-1.0169,1.0658-1.0975,1.0761-0.25,0.009,0.751,1.3684,1.25,3.408,1.25,3.1586,0,4.607-1.283,4.607-4.0818,0-0.5425-16.572-0.9182-40.5-0.9182-26.333,0-40.5,0.3498-40.5,1,0,0.55-1.35,1-3,1s-3-0.45-3-1-0.9-1-2-1c-2.1888,0-2.5652,1.6574-0.90856,4,0.79831,1.1288,1.1863,1.1907,1.568,0.25,0.631-1.554,19.341-1.796,19.341-0.25,0,1.4468,3.74,1.2313,4.3377-0.25,0.40351-1,0.52018-1,0.58333,0,0.04941,0.7824,1.602,1.25,4.1504,1.25,4.8105,0,7.3809,1.8539,5.2849,3.8118-0.73887,0.69021-1.6288,3.0399-1.9777,5.2215-0.381,2.386-1.18,3.966-2.006,3.966-0.755,0-1.372-0.45-1.372-1s-0.45-1-1-1-1,0.675-1,1.5,0.45,1.5,1,1.5,1,0.675,1,1.5,0.675,1.5,1.5,1.5,1.5,0.45,1.5,1c0,1.5959-4.7265,1.1551-5.3616-0.5-0.31658-0.825-1.1522-1.4645-1.857-1.4211-1.0036,0.06184-1.0104,0.18828-0.03139,0.58333,2.144,0.865,1.369,2.338-1.231,2.338-1.7886,0-2.65-0.67348-3.0867-2.4133-0.36083-1.4377-1.5814-2.6582-3.0191-3.0191-1.74-0.437-2.413-1.298-2.413-3.087,0-1.539-0.57-2.481-1.5-2.481-0.825,0-1.5,0.675-1.5,1.5s0.45,1.5,1,1.5,1,0.675,1,1.5,0.627,1.5,1.393,1.5c1.31,0,2.607,2.03,2.607,4.082,0,0.505-3.15,0.918-7,0.918-5.5556,0-7,0.30952-7,1.5,0,1.8163,1.6351,1.9912,2.3377,0.25,0.40351-1,0.52018-1,0.58333,0,0.097,1.537,42.079,1.846,42.079,0.31zm-10.729-10.664c0.33229-0.33229,1.1948-0.36782,1.9167-0.07895,0.79773,0.31923,0.56078,0.55618-0.60417,0.60417-1.0542,0.04342-1.6448-0.19293-1.3125-0.52522zm-35.271,10.604c0-0.55-0.45-1-1-1s-1,0.45-1,1,0.45,1,1,1,1-0.45,1-1zm-2.7543-0.25c0.688-1.872-0.228-3.75-1.829-3.75-0.779,0-1.417-0.675-1.417-1.5s-0.45-1.5-1-1.5-1,1.125-1,2.5c0,2.3889-0.26667,2.5-6,2.5-4.6667,0-6,0.33333-6,1.5,0,1.2142,1.5992,1.5,8.393,1.5,5.8026,0,8.5349-0.3858,8.8527-1.25zm49.754-3.323c0-0.93124-0.68037-1.4414-1.6671-1.25-2.509,0.486-2.853,2.823-0.416,2.823,1.228,0,2.083-0.646,2.083-1.573zm-46.628-1.9003c-0.28952-0.75446-1.1437-1.6086-1.8981-1.8981-0.86543-0.3321-1.1775-0.02007-0.84536,0.84536,0.28952,0.75446,1.1437,1.6086,1.8981,1.8981,0.86543,0.3321,1.1775,0.02007,0.84536-0.84536zm-9.372-0.527c0-0.55-0.45-1-1-1s-1-0.75-1-1.6667c0-0.91667-0.26609-1.4006-0.59131-1.0754-0.839,0.834,0.532,4.742,1.658,4.742,0.513,0,0.933-0.45,0.933-1zm15-5.5c0-0.825-0.45-1.5-1-1.5s-1.0069,0.5625-1.0153,1.25c-0.01037,0.84652-0.31561,0.77517-0.94563-0.22104-0.51167-0.80907-1.2792-1.1221-1.7057-0.69563-0.852,0.853,1.435,2.627,3.417,2.652,0.688,0.008,1.25-0.66,1.25-1.485zm-8.75,0.70153c4.46-0.543,3.141-2.202-1.75-2.202-2.475,0-4.5,0.39752-4.5,0.88337,0,1.1502,2.7906,1.7388,6.25,1.3182zm25.75-1.202c0-0.55-0.45-1-1-1s-1,0.45-1,1,0.45,1,1,1,1-0.45,1-1z"/>
  <path id="path2991" fill="#269bdb" d="m58.438,25.493c-0.457-1.824-0.158-2.506,1.231-2.802,1.01-0.215-0.414-0.399-3.164-0.41-2.75-0.01029-3.9875,0.15665-2.75,0.37099,3.1727,0.54951,2.8042,2.2415-0.5,2.2959-1.5125,0.02492-8.0375,0.08071-14.5,0.12396-9.2692,0.06204-11.75,0.36916-11.75,1.4547,0,1.8326,10.6,1.9504,11.341,0.12604,0.3937-0.97028,0.72093-0.94496,1.4623,0.11315,0.80635,1.1509,1.0518,1.1509,1.5761,0,0.481-1.055,0.753-1.081,1.204-0.113,0.395,0.846,3.149,1.25,8.519,1.25,7.887,0,7.932-0.015,7.331-2.41zm-32.433,1.477c0-1.126-3.9078-2.4929-4.742-1.6587-0.325,0.326,0.159,0.592,1.075,0.592,0.917,0,1.667,0.45,1.667,1s0.45,1,1,1,1-0.41968,1-0.93261zm-10.182-0.63644c1.1591-1.3126,0.25293-1.4645-7.5-1.257-4.8501,0.1298-8.0309,0.40175-7.0684,0.60434s1.75,0.78535,1.75,1.295c0,0.51,1.12,0.927,2.5,0.927,1.375,0,2.5069-0.5625,2.5153-1.25,0.01024-0.83588,0.34154-0.75305,1,0.25,0.87528,1.3333,1.0941,1.3333,1.9694,0,0.65846-1.0031,0.98976-1.0859,1-0.25,0.02077,1.6954,2.2161,1.5127,3.8337-0.31906zm39.489-8.365c-0.511-1.952,2.897-3.066,9.381-3.066,2.6753,0,3.3984-0.38817,3.2598-1.75-0.09791-0.9625-0.12619-2.9875-0.06286-4.5,0.108-2.576,0.4-2.75,4.615-2.75,2.475,0,4.5-0.45,4.5-1s1.462-1.006,3.25-1.014c1.788-0.007,4.262-0.285,5.5-0.616,4.088-1.0958,2.34-2.37-3.25-2.37-3.7252,0-5.5049,0.40337-5.5153,1.25-0.01038,0.84746-0.35693,0.76695-1.0761-0.25-0.79831-1.1288-1.1863-1.1907-1.568-0.25-0.279,0.6875-1.108,1.25-1.841,1.25-0.73333,0-1.5958-0.5625-1.9167-1.25-0.46667-1-0.7-1-1.1667,0-0.32083,0.6875-1.2208,1.25-2,1.25-0.77917,0-1.4236-0.5625-1.432-1.25-0.01024-0.83588-0.34154-0.75305-1,0.25-0.81935,1.2481-1.1323,1.2711-1.8636,0.13685-0.74207-1.1509-0.97566-1.1509-1.5,0-0.48,1.0552-0.752,1.0812-1.203,0.1132-0.431-0.9232-4.745-1.25-16.5-1.25-13.482,0-15.917,0.2295-15.917,1.5,0,1.2383,1.8752,1.5055,10.75,1.5318,11.155,0.033,14.25,0.9823,14.25,4.3703,0,0.92486-0.9,2.6476-2,3.8283s-2,2.5119-2,2.9582c0,0.447,0.9,0.812,2,0.812s2,0.62686,2,1.393c0,0.76616,0.62407,1.6325,1.3868,1.9252,0.94689,0.36336,1.2388-0.03382,0.92023-1.2521zm45.693-15.566c0-1.948-2.6141-1.948-3.362,0-0.391,1.02,0.054,1.5,1.3934,1.5,1.0832,0,1.9686-0.675,1.9686-1.5zm-82.812,0.81689c-0.72188-0.28887-1.5844-0.25334-1.9167,0.07895-0.33229,0.33229,0.25833,0.56864,1.3125,0.52522,1.1649-0.04798,1.4019-0.28494,0.60417-0.60417zm72.812-1.317c0-0.55-0.45-1-1-1s-1,0.45-1,1,0.45,1,1,1,1-0.45,1-1z"/>
  <path id="path2989" fill="#0f91d7" d="m66.715,12.903c-0.287-1.1-0.115-2,0.384-2,0.498,0,0.906-1.575,0.906-3.5v-3.5h-15.25l0.61607,3.0804c0.41557,2.0779,0.13081,3.5656-0.875,4.5714-2.742,2.743-1.544,3.349,6.626,3.349,7.6243,0,8.0849-0.12131,7.5936-2z"/>
 </g>
</svg>
