<?xml version="1.0" encoding="UTF-8" standalone="no"?>
<!-- Created with Inkscape (http://www.inkscape.org/) -->
<svg id="svg2" xmlns:rdf="http://www.w3.org/1999/02/22-rdf-syntax-ns#" xmlns="http://www.w3.org/2000/svg" height="38.972" width="108.26" version="1.1" xmlns:cc="http://creativecommons.org/ns#" xmlns:dc="http://purl.org/dc/elements/1.1/">
 <metadata id="metadata8">
  <rdf:RDF>
   <cc:Work rdf:about="">
    <dc:format>image/svg+xml</dc:format>
    <dc:type rdf:resource="http://purl.org/dc/dcmitype/StillImage"/>
    <dc:title/>
   </cc:Work>
  </rdf:RDF>
 </metadata>
 <g id="g3013" transform="translate(-0.10523389,0.27249295)">
  <path id="path3001" fill="#9ad0ed" d="m39.37,32.213c0-4.1977-0.43227-6.5911-1.25-6.9211-1-0.40351-1-0.52018,0-0.58333,1.867-0.118,1.71-14.762-0.179-16.65-1.612-1.6124-9.571-1.9687-9.571-0.4286,0,0.55-0.675,1-1.5,1s-1.5-0.45-1.5-1-1.8-1-4-1-4,0.45-4,1-1.575,1-3.5,1-3.5-0.45-3.5-1-1.575-1-3.5-1-3.5,0.45-3.5,1-0.675,1-1.5,1c-2.2845,0-2.0612-7.5665,0.25-8.4707,1.8438-0.72133,89.849-0.47357,92,0.259,1.8104,0.61646,1.6562,8.2117-0.16667,8.2117-0.77917,0-1.5961-0.53839-1.8155-1.1964-0.51877-1.5563-9.9444-1.1234-10.979,0.50423-0.57576,0.90559-0.76166,0.89169-0.77329-0.057812-0.01995-1.6286-4.6959-1.6286-5.353,0-0.40351,1-0.52018,1-0.58333,0-0.09594-1.519-10.079-1.7666-10.079-0.25,0,0.55-1.3019,1-2.893,1-3.5563,0-4.1927,1.4809-3.4243,7.9687,0.38903,3.2848,1.0682,5.0313,1.9566,5.0313,0.74839,0,1.3607,0.45,1.3607,1s1.575,1,3.5,1,3.5-0.45,3.5-1,1.125-1,2.5-1,2.5,0.45,2.5,1,1.35,1,3,1,3-0.45,3-1c0-0.57143,3-1,7-1s7,0.42857,7,1c0,0.57778,3.1667,1,7.5,1h7.5v7.5,7.5h-34.5-34.5v-6.4167z"/>
  <path id="path2999" fill="#76c2ea" d="m41.37,34.713c0-2.1977-0.54862-4.138-1.25-4.4211-1-0.40351-1-0.52018,0-0.58333,1.3814-0.08725,1.7647-4.0789,0.39166-4.0789-0.47208,0-0.70211-4.275-0.51116-9.5l0.347-9.4999-5.739-0.1624c-3.157-0.0894-11.702-0.1789-18.989-0.199-10.192-0.0281-13.25-0.3368-13.25-1.3375,0-0.71556-0.45-1.301-1-1.301s-1-0.61688-1-1.3708c0-2.2337,8.6629-2.5871,51.801-2.1134,41.935,0.46052,43.2,0.59713,43.199,4.6628-0.000387,1.0483-3.8824,1.3214-18.783,1.3214-18.037,0-18.792,0.079345-19.018,2-0.61375,5.2145,0.1212,14.157,1.256,15.283,1.2301,1.2202,25.937,0.19394,26.785-1.1126,0.55773-0.85909,1.0069-0.78586,1.6896,0.27547,0.70991,1.1036,3.3126,1.4457,11,1.4457h10.07v7.3043,7.3043h-33.5-33.5v-3.9167zm43-0.08333c0-0.55-0.45-1-1-1s-1,0.45-1,1,0.45,1,1,1,1-0.45,1-1zm-16.658-6.449c0.37166-0.96852,0.07551-1.2647-0.89301-0.89301-0.79699,0.30583-1.4491,0.95792-1.4491,1.4491,0,1.4376,1.7351,1.0257,2.3421-0.55606z"/>
  <path id="path2997" fill="#6bbae5" d="m41.37,32.13c0-3.575-0.3375-6.4996-0.75-6.4992-0.4125,0.000439-0.60441-4.3871-0.42647-9.75l0.323-9.7509-10.22-0.1779c-7.169-0.1247-10.498-0.5725-11.15-1.5-0.729-1.037-1.039-1.0526-1.437-0.0721-0.745,1.8362-14.046,1.6869-15.912-0.1785-2.5793-2.5793-1.555-3.5686,3.8215-3.6907,2.8875-0.065584,23.647-0.038105,46.132,0.061064,33.064,0.14582,41.144,0.44184,42.25,1.5478,2.627,2.627,1.4613,3.5104-4.6325,3.5104-3.3333,0-6-0.44444-6-1,0-0.55-0.675-1-1.5-1s-1.5,0.67689-1.5,1.5042c0,1.278-1.8757,1.4495-12.472,1.1404-8.3981-0.245-12.264-0.027021-11.835,0.66729,1.2163,1.968,1.1907,11.687-0.03086,11.703-0.82698,0.0109-0.84473,0.22707-0.06157,0.75,0.60516,0.40408,1.6335,1.7472,2.2852,2.9847,0.95868,1.8205,2.0373,2.25,5.6497,2.25,2.4556,0,4.4648,0.45,4.4648,1s-0.675,1-1.5,1-1.5,0.675-1.5,1.5,0.45,1.5,1,1.5,1-0.45,1-1,1.6875-1.0613,3.75-1.1362c2.3214-0.0843,2.8928-0.30128,1.5-0.56955-1.2375-0.23835-2.25-1.1017-2.25-1.9186,0-1.2776,2.5511-1.4155,18.25-0.98638,10.038,0.27438,18.587,0.52404,19,0.5548,1.1419,0.08516,0.8954,6.0559-0.25,6.0559-0.55,0-1,0.675-1,1.5s0.45,1.5,1,1.5,1,1.125,1,2.5v2.5h-33.5-33.5v-6.5zm43.901,1.5987c1.0457-1.0457,2.1666-2.9582,2.4908-4.25,0.32422-1.2918,0.33114-1.7862,0.01539-1.0987-0.31576,0.6875-1.2116,1.25-1.9908,1.25-0.77917,0-1.4167,0.9-1.4167,2s-0.45,2-1,2-1,0.45-1,1c0,1.4701,0.76868,1.2313,2.9013-0.90128zm8.0987-1.5987c0-0.825-0.45-1.5-1-1.5s-1,0.675-1,1.5,0.45,1.5,1,1.5,1-0.675,1-1.5zm5.729-5.104c-0.33229-0.33229-1.1948-0.36782-1.9167-0.07895-0.79773,0.31923-0.56078,0.55618,0.60417,0.60417,1.0542,0.04342,1.6448-0.19293,1.3125-0.52522zm6,0c-0.3323-0.33229-1.1948-0.36782-1.9167-0.07895-0.79773,0.31923-0.56078,0.55618,0.60417,0.60417,1.0542,0.04342,1.6448-0.19293,1.3125-0.52522z"/>
  <path id="path2995" fill="#4fafe4" d="m41.485,32.38c-0.10125-3.4375-0.52869-6.37-0.94986-6.5167s-0.44588-3.2967-0.05492-7c0.391-3.703,0.479-7.928,0.194-9.3891-0.393-2.0204-0.072-2.7595,1.34-3.0878,1.021-0.2374-1.947-0.4391-6.596-0.4482-5.448-0.0107-8.587-0.4237-8.833-1.1622-0.469-1.407-3.215-1.5314-3.215-0.1456,0,0.55-0.675,1-1.5,1s-1.5-0.45-1.5-1-0.675-1-1.5-1-1.5,0.45-1.5,1c0,0.57778-3.1667,1-7.5,1-5.8039,0-7.5-0.32037-7.5-1.4167,0-0.77917-0.5625-1.6176-1.25-1.8631-4.4687-1.5958,5.1414-2.0112,42.49-1.8364,25.891,0.12117,42.389,0.56931,42.593,1.157,0.44232,1.2729,3.1667,1.2378,3.1667-0.040763,0-0.55,0.9-1,2-1,1.1111,0,2,0.66667,2,1.5,0,0.825,0.45,1.5,1,1.5s1,0.45,1,1c0,0.55556-2.6667,1-6,1s-6-0.44444-6-1c0-1.4443-2.7558-1.2323-3.2503,0.25-0.307,0.9187-3.656,1.2161-12.636,1.1219l-12.22-0.1281,0.553,2.8781c0.30398,1.583,0.80403,4.1853,1.1112,5.7829,0.3072,1.5976,0.0822,3.1992-0.5,3.559-1.3429,0.82994-1.3877,3.5362-0.05855,3.5362,1.2969,0,5,3.7031,5,5,0,0.55,0.675,1,1.5,1,1.8394,0,2.0553,4.6093,0.25,5.3377-0.94006,0.37932-0.91685,0.52396,0.09362,0.58333,0.73899,0.04342,1.5922-0.8715,1.8959-2.0331,0.47416-1.8132,1.0978-2.0389,4.4064-1.5952,2.8012,0.37572,3.8541,0.1532,3.8541-0.81458,0-0.73234,0.7875-1.5373,1.75-1.7888,1.6667-0.43555,1.6667-0.46285,0-0.57332-0.9625-0.0638-1.75-0.50468-1.75-0.97974,0-1.0726,16.574-2.002,24.29-1.3621,6.1554,0.51045,7.9177,2.2258,2.2868,2.2258-2.4701,0-4.2583,0.83521-6.4231,3-3.6555,3.6555-5.1538,3.8009-5.1538,0.5,0-2.3946,1.471-3.4799,2.1667-1.5985,0.18333,0.49581,0.91358,0.27081,1.6228-0.5,1.0827-1.1768,0.81362-1.4015-1.6786-1.4015-3.157,0-6.1109,2.2097-6.1109,4.5714,0,0.78571-0.45,1.4286-1,1.4286s-1,0.675-1,1.5,0.675,1.5,1.5,1.5,1.5-0.675,1.5-1.5,0.675-1.5,1.5-1.5,1.5,0.675,1.5,1.5,0.48214,1.5,1.0714,1.5c1.3845,0,3.9286-2.5441,3.9286-3.9286,0-0.58929,0.68912-1.0714,1.5314-1.0714,0.84226,0,1.7904-0.675,2.107-1.5,0.69333-1.8068,5.3552-2.0235,5.3769-0.25,0.0102,0.83588,0.34154,0.75305,1-0.25,0.87528-1.3333,1.0941-1.3333,1.9694,0,0.65846,1.0031,0.98976,1.0859,1,0.25,0.008-0.6875,0.46531-1.25,1.0153-1.25,0.55,0,1,0.675,1,1.5,0,0.93333-0.94444,1.5-2.5,1.5-1.375,0-2.5,0.45-2.5,1s0.45,1,1,1,1,0.675,1,1.5,0.675,1.5,1.5,1.5,1.5,0.675,1.5,1.5c0,1.3033-4.3723,1.5-33.35,1.5h-33.35l-0.18409-6.25zm28.885,2.25c0-0.55-0.45-1-1-1s-1,0.45-1,1,0.45,1,1,1,1-0.45,1-1zm6,0c0-0.55-0.675-1-1.5-1s-1.5,0.45-1.5,1,0.675,1,1.5,1,1.5-0.45,1.5-1zm5-0.5c0-0.843-0.89327-1.5-2.0394-1.5-1.7106,0-1.8315,0.23575-0.75,1.462,1.6771,1.9015,2.7894,1.9167,2.7894,0.03804zm18.342,0.05093c0.37165-0.96852,0.07551-1.2647-0.89301-0.89301-1.5817,0.60697-1.9937,2.3421-0.55606,2.3421,0.49116,0,1.1432-0.65208,1.4491-1.4491zm-35.342-8.5509c0-0.55,0.9-1,2-1s2,0.45,2,1-0.9,1-2,1-2-0.45-2-1zm41,0c0-0.55,0.675-1,1.5-1s1.5,0.45,1.5,1-0.675,1-1.5,1-1.5-0.45-1.5-1z"/>
  <path id="path2993" fill="#32a5e3" d="m42.37,37.691c0-0.5168,1.6527-1.0793,3.6727-1.25,2.2199-0.18759,3.8323-0.90373,4.0761-1.8104,0.32506-1.2086,0.21941-1.2376-0.54385-0.14946-0.77608,1.1065-1.332,1.0211-3.0761-0.47224-2.4971-2.138-2.7279-3.3783-0.62885-3.3783,0.825,0,1.5-0.675,1.5-1.5,0-1.9923-0.98667-1.8964-2.5724,0.25-0.98478,1.3329-1.5742,1.4729-2.4731,0.58713-1.4099-1.3892-0.27605-3.6745,1.4874-2.9978,0.68174,0.26161,1.8737,0.07418,2.6488-0.41651,0.97276-0.61581,0.2477-0.89691-2.3407-0.90748l-3.75-0.01531v-4.9349c0-2.7142,0.42746-6.0592,0.94991-7.4334,0.6762-1.7786,0.60417-2.6149-0.25-2.9025-1.6505-0.55574,0.97002-3.7014,3.1725-3.8082,1.3649-0.066207,1.3855-0.17109,0.12756-0.64994-0.825-0.31405-1.8718-1.066-2.3261-1.6711-0.58792-0.78286-0.97238-0.73962-1.3333,0.14994-0.62123,1.531-14.341,1.7702-14.341,0.25,0-1.5126-12.722-1.2742-13.341,0.25-0.38169,0.94068-0.76971,0.87881-1.568-0.25-0.7192-1.0169-1.0658-1.0975-1.0761-0.25-0.0092,0.75139-1.3687,1.25-3.4083,1.25-3.1586,0-4.607-1.2833-4.607-4.0818,0-0.5425,16.572-0.91821,40.5-0.91821,26.333,0,40.5,0.34979,40.5,1,0,0.55,1.35,1,3,1s3-0.45,3-1,0.9-1,2-1c2.1888,0,2.5652,1.6574,0.90856,4-0.79831,1.1288-1.1863,1.1907-1.568,0.25-0.63059-1.5541-19.341-1.7959-19.341-0.25,0,1.4468-3.74,1.2313-4.3377-0.25-0.40351-1-0.52018-1-0.58333,0-0.09338,1.4785-6.0789,1.7247-6.0789,0.25,0-1.457-1.9199-1.223-3.5791,0.43629-1.0173,1.0173-1.3056,2.9694-0.98838,6.6923,0.24635,2.8908,0.14998,5.732-0.21416,6.3137-1.3366,2.1354-0.99349,3.5577,0.85835,3.5577,1.443,0,2.0535,0.96153,2.5393,4,0.38578,2.4125,1.1842,4,2.0118,4,0.75471,0,1.3722-0.45,1.3722-1s0.45-1,1-1,1,0.675,1,1.5-0.45,1.5-1,1.5-1,0.675-1,1.5-0.675,1.5-1.5,1.5-1.5,0.45-1.5,1c0,1.5959,4.7265,1.1551,5.3616-0.5,0.31658-0.825,1.1522-1.4645,1.857-1.4211,1.0036,0.06184,1.0104,0.18828,0.03139,0.58333-2.1442,0.8652-1.3688,2.3377,1.2309,2.3377,1.7886,0,2.65-0.67348,3.0867-2.4133,0.3501-1.3949,1.5775-2.6572,2.9085-2.9913,1.3633-0.34216,2.5596-1.6014,2.9324-3.0867,0.68118-2.714,2.5915-3.4576,2.5915-1.0087,0,0.825-0.45,1.5-1,1.5s-1,0.675-1,1.5-0.62686,1.5-1.393,1.5c-1.3103,0-2.607,2.0303-2.607,4.0818,0,0.50502,3.15,0.91821,7,0.91821,5.5556,0,7,0.30952,7,1.5,0,1.8163-1.6351,1.9912-2.3377,0.25-0.40351-1-0.52018-1-0.58333,0-0.09705,1.5367-42.079,1.8463-42.079,0.31036zm10.729-10.665c-0.33229-0.33229-1.1948-0.36782-1.9167-0.07895-0.79773,0.31923-0.56078,0.55618,0.60417,0.60417,1.0542,0.04342,1.6448-0.19293,1.3125-0.52522zm-7.7292-5.8368c0-0.24254-0.45-0.7191-1-1.059-0.55-0.33992-1-0.14148-1,0.44098s0.45,1.059,1,1.059,1-0.19844,1-0.44098zm7-14.559c0-0.55-0.7875-0.99311-1.75-0.98469-1.4955,0.013086-1.5319,0.15626-0.25,0.98469,1.8872,1.2196,2,1.2196,2,0zm36,31c0-0.55,0.45-1,1-1s1,0.45,1,1-0.45,1-1,1-1-0.45-1-1zm2.7543-0.25c-0.68835-1.8718,0.22772-3.75,1.829-3.75,0.77917,0,1.4167-0.675,1.4167-1.5s0.45-1.5,1-1.5,1,1.125,1,2.5c0,2.3889,0.26667,2.5,6,2.5,4.6667,0,6,0.33333,6,1.5,0,1.2142-1.5992,1.5-8.393,1.5-5.8026,0-8.5349-0.3858-8.8527-1.25zm-49.754-3.323c0-0.93124,0.68037-1.4414,1.6671-1.25,2.5088,0.48655,2.8532,2.8233,0.4162,2.8233-1.2283,0-2.0833-0.64569-2.0833-1.5733zm56-2.4267c0-0.55,0.45-1,1-1s1-0.75,1-1.6667c0-0.91667,0.26609-1.4006,0.59131-1.0754,0.83421,0.83422-0.53268,4.742-1.6587,4.742-0.51294,0-0.93261-0.45-0.93261-1zm-15-5.5c0-0.825,0.45-1.5,1-1.5s1.0069,0.5625,1.0153,1.25c0.01037,0.84652,0.31561,0.77517,0.94563-0.22104,0.51167-0.80907,1.2792-1.1221,1.7057-0.69563,0.85222,0.85222-1.435,2.6271-3.4167,2.6514-0.6875,0.0084-1.25-0.65969-1.25-1.4847zm8.75,0.70153c-4.4601-0.54231-3.1412-2.2015,1.75-2.2015,2.475,0,4.5,0.39752,4.5,0.88337,0,1.1502-2.7906,1.7388-6.25,1.3182zm-25.75-1.2015c0-0.55,0.45-1,1-1s1,0.45,1,1-0.45,1-1,1-1-0.45-1-1z"/>
  <path id="path2991" fill="#269bdb" d="m49.937,36.22c0.45769-1.8236,0.1581-2.5054-1.2309-2.8014-1.0097-0.21521,0.41414-0.39972,3.1641-0.41001s3.9875,0.15665,2.75,0.37099c-3.1727,0.54951-2.8042,2.2415,0.5,2.2959,1.5125,0.02492,8.0375,0.08071,14.5,0.12396,9.2692,0.06204,11.75,0.36916,11.75,1.4547,0,1.8326-10.6,1.9504-11.341,0.12604-0.3937-0.97028-0.72093-0.94496-1.4623,0.11315-0.80635,1.1509-1.0518,1.1509-1.5761,0-0.48094-1.0556-0.75265-1.0812-1.2044-0.11315-0.39479,0.84598-3.1483,1.25-8.5191,1.25-7.8865,0-7.932-0.01494-7.3308-2.4101zm32.433,1.4775c0-1.126,3.9078-2.4929,4.742-1.6587,0.32522,0.32522-0.15869,0.59131-1.0754,0.59131-0.91667,0-1.6667,0.45-1.6667,1s-0.45,1-1,1-1-0.41968-1-0.93261zm10.181-0.637c-1.1591-1.3126-0.25293-1.4645,7.5-1.257,4.8501,0.1298,8.0309,0.40175,7.0684,0.60434s-1.75,0.78535-1.75,1.295c0,0.50967-1.125,0.92668-2.5,0.92668s-2.5069-0.5625-2.5153-1.25c-0.0102-0.83588-0.34154-0.75305-1,0.25-0.87528,1.3333-1.0941,1.3333-1.9694,0-0.65846-1.0031-0.98976-1.0859-1-0.25-0.02077,1.6954-2.2161,1.5127-3.8337-0.31906zm-39.488-8.365c0.51085-1.9535-2.8971-3.0661-9.3913-3.0661-2.7439,0-3.3805-0.3575-3.1164-1.75,0.20016-1.0555,1.4199-1.8756,3.0733-2.0664,1.5078-0.17403,2.7414-0.70354,2.7414-1.1767,0-0.47314,0.7875-1.0878,1.75-1.366,0.9625-0.27816-0.28638-0.27522-2.7753,0.0065-4.2912,0.48576-4.5363,0.3788-4.7388-2.0676-0.14182-1.7135,0.28644-2.5798,1.2753-2.5798,0.81884,0,1.4888-0.6375,1.4888-1.4167,0-0.77917,0.5625-1.6436,1.25-1.9211,0.6875-0.27741,0.0125-0.53991-1.5-0.58333-3.8256-0.10982-3.4346-1.6979,0.75867-3.0818,2.7638-0.91214,6.8592-0.92494,11.174-0.034908,0.10071,0.020773,0.2181,1.2753,0.26086,2.7878s0.12934,3.425,0.19241,4.25-0.2156,2.7375-0.61927,4.25c-0.51327,1.9232-0.35866,2.75,0.51423,2.75,1.2489,0,3.8769,2.8371,3.9368,4.25,0.01749,0.4125-0.8682,0.75-1.9682,0.75s-2,0.62686-2,1.393c0,0.76616-0.62407,1.6325-1.3868,1.9252-0.94689,0.36336-1.2388-0.03382-0.92023-1.2521zm-21.693-24.066c0-0.55-1.4625-1.0061-3.25-1.0137-1.7875-0.00751-4.2625-0.28499-5.5-0.61663-4.0878-1.0955-2.3403-2.3697,3.25-2.3697,3.7252,0,5.5049,0.40337,5.5153,1.25,0.01038,0.84746,0.35693,0.76695,1.0761-0.25,0.79831-1.1288,1.1863-1.1907,1.568-0.25,0.27896,0.6875,1.1072,1.25,1.8405,1.25,0.73333,0,1.5958-0.5625,1.9167-1.25,0.46667-1,0.7-1,1.1667,0,0.75745,1.6231,3.4121,1.6231,3.432,0,0.01038-0.84746,0.35693-0.76695,1.0761,0.25,0.86995,1.2301,1.1589,1.2547,1.6057,0.13685,0.46006-1.1509,0.69365-1.1509,1.5,0,0.74136,1.0581,1.0686,1.0834,1.4623,0.11315,0.3759-0.9264,4.6277-1.25,16.424-1.25,13.481,0,15.917,0.22949,15.917,1.5,0,1.2846-2.9444,1.5-20.5,1.5-13,0-20.5,0.36585-20.5,1,0,0.55-1.8,1-4,1s-4-0.45-4-1zm-24-2.5c0-1.948,2.6141-1.948,3.3616,0,0.39152,1.0203-0.05397,1.5-1.393,1.5-1.0832,0-1.9686-0.67464-1.9686-1.5zm82.813,0.81689c0.72188-0.28887,1.5844-0.25334,1.9167,0.078947,0.33229,0.33229-0.25833,0.56864-1.3125,0.52522-1.1649-0.047984-1.4019-0.28494-0.60417-0.60417zm-72.812-1.3169c0-0.55,0.45-1,1-1s1,0.45,1,1-0.45,1-1,1-1-0.45-1-1z"/>
  <path id="path2989" fill="#1193d8" d="m41.555,23.88c0.24048-1.2678,1.4723-1.8333,4.4704-2.0525,3.11-0.2273,4.265-0.78623,4.6475-2.249,0.66623-2.5477-0.73228-3.3244-3.4075-1.8927-1.6394,0.87736-2.698,0.8527-4.4865-0.10447-3.281-1.7559-2.0524-2.9514,3.0333-2.9514,3.4833,0,4.4261-0.38896,4.8474-2,0.47053-1.7993,0.03068-2-4.3834-2-2.6985,0-4.9064-0.45-4.9064-1s0.81-1,1.8-1,2.2947-0.4947,2.8993-1.0993c0.67252-0.67252,2.012-0.78867,3.45-0.29916,1.2929,0.4401,2.6657,0.8223,3.0507,0.84934,0.385,0.027036,1.2625,0.61166,1.95,1.2992,0.91519,0.91519,0.93522,1.25,0.07475,1.25-0.84835,0-0.90398,0.71348-0.2,2.5651,1.4465,3.8047,1.2007,5.2286-1.0248,5.9349-2.7071,0.85919-2.5368,2.5,0.25945,2.5,1.2427,0,2.8215,0.9,3.5085,2,1.2126,1.9417,0.99869,2-7.3328,2-7.6329,0-8.5451-0.19349-8.2498-1.75z"/>
 </g>
</svg>
